<svg width="55" height="49" viewBox="0 0 55 49" fill="none" xmlns="http://www.w3.org/2000/svg">
<g id="Group">
<g id="Group_2">
<path id="Vector" d="M49.4213 24.8659C52.5316 21.674 53.574 17.2194 52.5497 13.1798C48.4607 12.143 43.9458 13.2222 40.7464 16.4215C38.4079 18.7601 37.2035 21.8016 37.1289 24.8659H49.4213Z" fill="#8BC727"/>
<path id="Vector_2" d="M52.5501 13.1817C48.4611 12.145 43.9462 13.224 40.7468 16.4235C39.9859 17.1846 39.3471 18.0208 38.8262 18.9073C39.8286 19.3503 40.706 20.0232 41.3922 20.8598C41.8678 20.1136 42.4313 19.4072 43.083 18.7555C45.7672 16.0713 49.3773 14.8802 52.885 15.1782C52.8279 14.5064 52.7166 13.8385 52.5501 13.1817Z" fill="#81B823"/>
<path id="Vector_3" d="M42.3186 24.8668L49.1023 18.083C49.5047 17.6805 49.5047 17.0283 49.1023 16.6259C48.7001 16.2238 48.0477 16.2235 47.6453 16.6259L39.4043 24.8668H42.3186Z" fill="#A2E62E"/>
</g>
<path id="Vector_4" d="M25.6622 13.2381C25.6622 14.2175 25.4412 15.1559 25.0053 16.0271L24.9609 16.1157L30.3399 21.4947L30.4338 21.3606C31.7085 19.5409 33.7929 18.4545 36.0094 18.4545C36.134 18.4545 36.2576 18.4588 36.3807 18.4654C36.4051 18.2287 36.4178 17.9886 36.4178 17.7454C36.4178 13.9111 33.3094 10.8027 29.4751 10.8027C28.0141 10.8027 26.6593 11.255 25.5409 12.0257C25.6198 12.4196 25.6622 12.825 25.6622 13.2381Z" fill="#FE7701"/>
<path id="Vector_5" d="M25.6622 13.2381C25.6622 14.2175 25.4412 15.1559 25.0053 16.0271L24.9609 16.1157L28.875 20.0297C28.6257 19.3142 28.4894 18.5458 28.4894 17.7454C28.4894 14.9772 30.1099 12.5881 32.4537 11.4731C31.551 11.0437 30.5413 10.8027 29.4752 10.8027C28.0142 10.8027 26.6596 11.255 25.5412 12.0257C25.6198 12.4196 25.6622 12.825 25.6622 13.2381Z" fill="#F46700"/>
<path id="Vector_6" d="M42.9424 24.866C42.7395 21.2138 39.7143 18.3145 36.0112 18.3145C32.3081 18.3145 29.2831 21.2138 29.0801 24.866H42.9424Z" fill="#FD4755"/>
<path id="Vector_7" d="M33.8811 24.866C34.0378 22.046 35.8765 19.675 38.4114 18.7409C37.6634 18.4652 36.855 18.3145 36.0112 18.3145C32.3083 18.3145 29.2831 21.2138 29.0801 24.866H33.8811Z" fill="#FB2B3A"/>
<g id="Group_3">
<g id="Group_4">
<path id="Vector_8" d="M3.39703 24.8633H25.3128C25.6196 24.116 25.7899 23.2982 25.7899 22.4403C25.7899 20.6309 25.0361 18.9984 23.827 17.8365C25.0361 16.6746 25.7899 15.0423 25.7899 13.2328C25.7899 10.1548 23.612 7.58584 20.7132 6.9818C20.7305 6.79057 20.7407 6.59729 20.7407 6.40139C20.7407 2.87468 17.8816 0.015625 14.3549 0.015625C10.8281 0.015625 7.96916 2.87468 7.96916 6.40139C7.96916 6.59715 7.97932 6.79057 7.99663 6.9818C5.09787 7.58584 2.91992 10.1548 2.91992 13.2328C2.91992 15.0422 3.6737 16.6746 4.88288 17.8365C3.6737 18.9984 2.91992 20.6309 2.91992 22.4403C2.91992 23.2982 3.09027 24.116 3.39703 24.8633Z" fill="#8BC727"/>
<g id="Group_5">
<path id="Vector_9" d="M3.33718 24.7258H7.78018C7.71959 24.3727 7.68663 24.0103 7.68663 23.64C7.68663 22.0577 8.26305 20.6107 9.21644 19.4955C9.44283 19.2306 9.44283 18.8421 9.21644 18.5771C8.26305 17.4618 7.68663 16.0149 7.68663 14.4325C7.68663 11.5431 9.6059 9.10233 12.239 8.31434C12.54 8.22422 12.7374 7.94178 12.7359 7.6276C12.7359 7.61881 12.7359 7.61002 12.7359 7.60123C12.7359 4.39708 15.0958 1.74463 18.1722 1.28607C17.1063 0.488197 15.783 0.015625 14.3491 0.015625C10.8222 0.015625 7.9633 2.87468 7.9633 6.40139C7.9633 6.59715 7.97346 6.79044 7.99077 6.9818C5.09201 7.58584 2.91406 10.1548 2.91406 13.2328C2.91406 15.0422 3.66784 16.6746 4.87702 17.8365C3.66784 18.9984 2.91406 20.6309 2.91406 22.4403C2.9142 23.2458 3.0649 24.0159 3.33718 24.7258Z" fill="#81B823"/>
</g>
</g>
<path id="Vector_10" d="M11.2939 17.6636C10.8916 17.2614 10.2392 17.2614 9.83694 17.6636C9.43456 18.0661 9.43456 18.7184 9.83694 19.1208L13.3351 22.6189V24.8658H15.3957V22.6189L18.894 19.1208C19.2963 18.7183 19.2963 18.066 18.894 17.6636C18.4917 17.2615 17.8393 17.2613 17.437 17.6636L15.3958 19.7048V16.1701L18.8941 12.672C19.2965 12.2695 19.2965 11.6172 18.8941 11.2148C18.4919 10.8127 17.8395 10.8124 17.4371 11.2148L15.396 13.2559V8.92875C15.396 8.35961 14.9347 7.89844 14.3657 7.89844C13.7966 7.89844 13.3353 8.35961 13.3353 8.92875V13.2559L11.2942 11.2148C10.8918 10.8126 10.2394 10.8126 9.83721 11.2148C9.43484 11.6173 9.43484 12.2696 9.83721 12.672L13.3353 16.1701V19.7048L11.2939 17.6636Z" fill="#A2E62E"/>
</g>
<g id="Group_6">
<path id="Vector_11" d="M33.9089 24.8683L23.4367 14.396C23.0985 14.0578 22.5417 14.08 22.2337 14.446C19.745 17.4027 19.2018 21.4382 20.5992 24.8683H33.9089Z" fill="white"/>
<path id="Vector_12" d="M27.3233 24.8674H33.9091L26.071 17.0293C24.5145 19.2606 24.7301 22.3526 26.7209 24.3433C26.912 24.5345 27.1135 24.709 27.3233 24.8674Z" fill="#FAC600"/>
</g>
<g id="Group_7">
<path id="Vector_13" d="M14.8674 48.6576H39.3497C39.7088 48.6576 40.0604 48.5617 40.3734 48.3857C48.4482 43.8481 53.9652 35.2968 54.2168 25.4356C54.2267 25.0493 53.9156 24.7305 53.5291 24.7305H0.687931C0.301494 24.7305 -0.00966158 25.0493 0.000229454 25.4356C0.252039 35.2968 5.7689 43.8481 13.8437 48.3857C14.1568 48.5617 14.5083 48.6576 14.8674 48.6576Z" fill="#FFC170"/>
</g>
<path id="Vector_14" d="M9.33298 25.4356C9.32308 25.0493 9.63424 24.7305 10.0207 24.7305H0.687931C0.301494 24.7305 -0.00966159 25.0493 0.000229454 25.4356C0.252039 35.2968 5.7689 43.8481 13.8437 48.3857C14.1568 48.5617 14.5085 48.6576 14.8674 48.6576H24.2002C23.8411 48.6576 23.4894 48.5617 23.1764 48.3857C15.1016 43.8479 9.58478 35.2967 9.33298 25.4356Z" fill="#FFA733"/>
</g>
</svg>
