<svg width="53" height="53" viewBox="0 0 53 53" fill="none" xmlns="http://www.w3.org/2000/svg">
<g id="whisk 1" clip-path="url(#clip0_2031_660)">
<g id="Group">
<path id="Vector" d="M37.8841 14.5036C37.8801 14.5036 38.197 14.3435 38.193 14.3436C38.1386 14.3445 37.1314 12.7824 36.7244 12.6108C36.3177 12.4392 35.9306 14.2687 35.759 14.6758C33.8761 19.1404 26.1912 26.8022 21.7833 27.7666C21.1502 27.9504 20.7176 28.1033 20.4247 28.2366C20.3263 28.1432 20.2443 28.0643 20.1934 28.0085C19.9284 27.7184 19.7186 27.4757 19.5339 27.2454C19.5337 27.2452 19.5335 27.2449 19.5333 27.2447C19.1213 26.73 19.0699 26.0813 19.3766 25.2615C20.0794 23.3837 22.6192 20.8413 26.1708 18.4608C29.4631 16.254 33.0607 14.562 35.3362 14.15C35.7708 14.0713 37.283 13.9538 37.2042 13.5191C37.1254 13.0845 37.1716 11.9719 36.7377 12.0511C36.7284 12.0527 36.564 12.1534 36.5765 12.1006C36.6793 11.671 34.9131 11.5699 34.4835 11.4672C31.6892 10.799 28.1766 11.0857 24.8465 12.2536C21.3492 13.4801 18.5925 15.4659 17.0839 17.8452C16.1119 19.3785 15.692 21.016 15.8363 22.7123C15.9905 24.5266 16.7965 26.3638 18.23 28.1746C18.2478 28.1981 18.7236 28.7715 19.0123 29.0875C19.17 29.2602 19.3862 29.3478 19.6029 29.3478C19.7956 29.3478 22.0674 29.3419 22.1249 29.3293C24.4715 28.8158 27.67 26.7293 30.9004 23.6045C33.3236 21.2603 35.3939 18.6923 36.5865 16.5898C36.4631 20.397 34.2219 25.1005 31.1256 27.9605C30.0193 28.9535 28.9197 28.9845 29.2195 29.3089C29.3772 29.4796 31.4531 29.3477 31.6685 29.3477C31.8625 29.3477 32.0572 29.2775 32.2109 29.1354C35.7978 25.8224 38.2572 20.459 38.1916 16.0924C38.1851 15.6548 38.3202 14.5036 37.8841 14.5036ZM17.9228 24.5916C17.084 22.5392 17.2525 20.5665 18.4351 18.7014C21.0274 14.6128 28.2936 11.8916 33.6488 12.9235C31.2535 13.6516 28.1884 15.1826 25.2802 17.1318C23.4676 18.3468 19.1576 21.4852 17.9228 24.5916Z" fill="#FFC18A"/>
<g id="Group_2">
<path id="Vector_2" fill-rule="evenodd" clip-rule="evenodd" d="M40.6204 13.5184L51.999 4.40049C53.0607 3.55114 53.2324 1.98671 52.3831 0.925056C51.5337 -0.1366 49.9662 -0.311438 48.9045 0.541013L37.5259 9.65577L38.3814 12.9064L40.6204 13.5184Z" fill="#EE6161"/>
</g>
<g id="Group_3">
<path id="Vector_3" fill-rule="evenodd" clip-rule="evenodd" d="M40.6206 13.5186L51.9992 4.40074C53.0609 3.55139 53.2326 1.98696 52.3833 0.925303C52.1584 0.641152 51.8805 0.422527 51.5776 0.269531C51.8118 1.1844 51.5121 2.19306 50.7314 2.82067L39.3527 11.9354L39.3027 13.4499L40.6206 13.5186Z" fill="#E94444"/>
</g>
<g id="Group_4">
<path id="Vector_4" fill-rule="evenodd" clip-rule="evenodd" d="M40.6203 13.5188L37.5258 9.65625L34.5466 12.0448C34.4087 12.1553 34.3866 12.3567 34.4971 12.4944L37.1915 15.8549C37.302 15.9926 37.5032 16.0149 37.6411 15.9045L40.6203 13.5188Z" fill="#554E56"/>
</g>
<g id="Group_5">
<path id="Vector_5" fill-rule="evenodd" clip-rule="evenodd" d="M37.6414 15.9043L40.6205 13.5187L39.3528 11.9355L36.124 14.5242L36.4956 14.9863L37.1918 15.8546C37.3022 15.9925 37.5036 16.0148 37.6414 15.9043Z" fill="#433F43"/>
</g>
<g id="Group_6">
<path id="Vector_6" fill-rule="evenodd" clip-rule="evenodd" d="M49.3136 33.2617H2.43461C2.4315 33.2617 2.4284 33.2617 2.42529 33.2617C2.42529 44.1626 12.814 52.9995 25.8976 52.9995C38.9811 52.9995 49.3136 44.1626 49.3136 33.2617Z" fill="#FEBC64"/>
</g>
<g id="Group_7">
<path id="Vector_7" fill-rule="evenodd" clip-rule="evenodd" d="M49.3136 33.262L27.7929 32.1348L2.43461 33.262C2.4315 33.262 2.4284 33.262 2.42529 33.262C2.42529 34.2051 2.50024 35.1294 2.65013 36.0349H42.8624C45.6759 36.0349 45.7727 36.241 45.3823 39.1544C44.8202 43.3417 42.8593 46.2801 39.6961 49.2496C45.554 45.6649 49.3136 39.8382 49.3136 33.262Z" fill="#FE9F22"/>
</g>
<g id="Group_8">
<path id="Vector_8" fill-rule="evenodd" clip-rule="evenodd" d="M49.3137 28.5469H30.544H20.8265H18.4784H2.43472C1.1388 28.5469 0.0771484 29.6054 0.0771484 30.9044C0.0771484 32.1285 1.02328 33.1433 2.2192 33.2526C2.29104 33.2588 2.36288 33.262 2.43461 33.262H49.3136C49.4011 33.262 49.4854 33.2589 49.5697 33.2495C50.7469 33.1214 51.6743 32.116 51.6743 30.9044C51.6744 29.6054 50.6127 28.5469 49.3137 28.5469Z" fill="#FEDF30"/>
</g>
<g id="Group_9">
<path id="Vector_9" fill-rule="evenodd" clip-rule="evenodd" d="M49.3139 28.5469H44.2554C45.5513 28.5469 46.6129 29.6054 46.6129 30.9044C46.6129 32.116 45.6886 33.1214 44.5084 33.2495C44.4303 33.2588 44.3459 33.262 44.2648 33.262H49.314C49.4014 33.262 49.4857 33.2589 49.5701 33.2495C50.7473 33.1214 51.6746 32.116 51.6746 30.9044C51.6745 29.6054 50.6128 28.5469 49.3139 28.5469Z" fill="#FED402"/>
</g>
<path id="Vector_10" d="M12.7067 19.2933L12 18L11.2933 19.2933L10 20L11.2933 20.7067L12 22L12.7067 20.7067L14 20L12.7067 19.2933Z" fill="#FA5933"/>
<path id="Vector_11" d="M7.70667 13.2933L7 12L6.29333 13.2933L5 14L6.29333 14.7067L7 16L7.70667 14.7067L9 14L7.70667 13.2933Z" fill="#FA5933"/>
<path id="Vector_12" d="M15.06 5.94L14 4L12.94 5.94L11 7L12.94 8.06L14 10L15.06 8.06L17 7L15.06 5.94Z" fill="#FA5933"/>
</g>
</g>
<defs>
<clipPath id="clip0_2031_660">
<rect width="53" height="53" fill="white"/>
</clipPath>
</defs>
</svg>
