<svg width="108" height="80" viewBox="0 0 108 80" fill="none" xmlns="http://www.w3.org/2000/svg">
<path d="M67.9219 77.8969C88.8839 77.8969 105.877 60.9308 105.877 40.0022C105.877 19.0735 88.8839 2.10742 67.9219 2.10742C46.9599 2.10742 29.9668 19.0735 29.9668 40.0022C29.9668 60.9308 46.9599 77.8969 67.9219 77.8969Z" fill="#FFC76B"/>
<path d="M67.9188 67.3716C83.0581 67.3716 95.3309 55.1184 95.3309 40.0032C95.3309 24.888 83.0581 12.6348 67.9188 12.6348C52.7796 12.6348 40.5068 24.888 40.5068 40.0032C40.5068 55.1184 52.7796 67.3716 67.9188 67.3716Z" fill="#F9FAFA"/>
<path d="M67.9189 0C53.5595 0 40.9426 7.58316 33.8682 18.9474H12.0406C10.876 18.9474 9.93198 19.8899 9.93198 21.0526C9.93198 22.2154 10.876 23.1579 12.0406 23.1579H31.5852C29.1938 28.2798 27.8552 33.9863 27.8552 40C27.8552 41.4219 27.9313 42.8265 28.077 44.2105H2.1301C0.965512 44.2105 0.0214844 45.1531 0.0214844 46.3158C0.0214844 47.4785 0.965512 48.4211 2.1301 48.4211H28.7514C29.3848 51.3602 30.3423 54.1802 31.5852 56.8421H16.047C14.8824 56.8421 13.9384 57.7846 13.9384 58.9474C13.9384 60.1101 14.8824 61.0526 16.047 61.0526H33.8682C40.9426 72.4168 53.5595 80 67.9189 80C90.0103 80 107.983 62.056 107.983 40C107.983 17.944 90.0103 0 67.9189 0ZM67.9189 75.7895C51.0576 75.7895 36.8805 64.1053 33.0774 48.4211H43.459C44.6236 48.4211 45.5676 47.4785 45.5676 46.3158C45.5676 45.1531 44.6236 44.2105 43.459 44.2105H32.3217C32.1587 42.8291 32.0725 41.4244 32.0725 40C32.0725 33.9147 33.6033 28.1806 36.2977 23.1579H49.7848C50.9494 23.1579 51.8935 22.2154 51.8935 21.0526C51.8935 19.8899 50.9494 18.9474 49.7848 18.9474H38.9495C45.4742 10.0219 56.0289 4.21053 67.9189 4.21053C87.6847 4.21053 103.765 20.2657 103.765 40C103.765 59.7343 87.6847 75.7895 67.9189 75.7895Z" fill="#FF9E00"/>
<path d="M70.0288 39.1261V23.156C70.0288 21.9933 69.0845 21.0508 67.9201 21.0508C66.7558 21.0508 65.8115 21.9933 65.8115 23.156V39.9981C65.8115 40.5565 66.0338 41.092 66.4291 41.4868L79.0808 54.1184C79.4926 54.5295 80.032 54.735 80.5718 54.735C81.1116 54.735 81.651 54.5295 82.0628 54.1184C82.8863 53.2963 82.8863 51.9632 82.0628 51.1409L70.0288 39.1261Z" fill="#FF9E00"/>
<path d="M7.82346 35.7926H22.3729C23.5375 35.7926 24.4815 34.85 24.4815 33.6873C24.4815 32.5246 23.5375 31.582 22.3729 31.582H7.82346C6.65887 31.582 5.71484 32.5246 5.71484 33.6873C5.71484 34.85 6.65887 35.7926 7.82346 35.7926Z" fill="#FF9E00"/>
</svg>
