<svg width="97" height="87" viewBox="0 0 97 87" fill="none" xmlns="http://www.w3.org/2000/svg">
<path d="M6.77449 48.8255L5.24089 45.4199L3.7073 48.8255L0.920898 50.6999L3.7073 52.5743L5.24089 55.9799L6.77449 52.5743L9.56089 50.6999L6.77449 48.8255Z" fill="#CEC7FE"/>
<path d="M8.3223 32.5675L7.6407 31.0195L6.9591 32.5675L5.7207 33.4195L6.9591 34.2715L7.6407 35.8195L8.3223 34.2715L9.5607 33.4195L8.3223 32.5675Z" fill="#CEC7FE"/>
<g clip-path="url(#clip0_1383_1459)">
<path d="M71.3649 53.3139C69.452 51.0293 68.0249 48.349 67.1806 45.4026C66.4186 42.7403 67.9578 39.9664 70.6195 39.2044C73.2798 38.4431 76.0537 39.9824 76.8163 42.6414C77.1117 43.6729 77.8876 44.8869 78.7074 45.9708C79.9201 47.5685 81.2323 48.8834 81.2575 48.9086C81.2575 48.9086 95.4075 63.196 85.1392 73.4643C81.2994 77.3041 75.8944 82.7091 75.8944 82.7091C68.3149 90.2885 56.2764 86.8131 49.6023 80.1384L35.8691 66.4052" fill="#FFDC8D"/>
<path d="M80.6647 77.9385C78.0833 80.5199 75.8956 82.7083 75.8956 82.7083C68.3161 90.2871 56.2776 86.8117 49.6035 80.1369L32.9531 63.4866L37.7222 58.7168L54.3732 75.3678C61.0473 82.0419 73.0859 85.5173 80.6647 77.9385Z" fill="#E8C57E"/>
<path d="M66.7332 68.6844H68.0667C71.1598 68.6844 73.6661 66.1489 73.6661 63.0199V11.7713C73.6661 8.64294 71.1598 6.10547 68.0667 6.10547H22.7937C19.7007 6.10547 17.1924 8.64294 17.1924 11.7713V63.0199C17.1924 66.1489 19.7007 68.6844 22.7937 68.6844H56.4658" fill="#F78E39"/>
<path d="M21.7715 10.6836H69.0873V62.5783H21.7715V10.6836Z" fill="#F4F4F4"/>
<path d="M88.8284 63.6115C88.1792 55.8966 81.2576 48.9086 81.2576 48.9086C81.233 48.8834 79.9208 47.5685 78.7081 45.9708C77.8877 44.8869 77.1124 43.6735 76.817 42.6414C76.0544 39.9824 73.2806 38.4431 70.6202 39.2044C67.9585 39.9664 66.4193 42.7403 67.1813 45.4026C68.0256 48.349 69.4527 51.0293 71.3649 53.3139C71.8256 53.8662 72.3148 54.3952 72.8319 54.899C68.317 59.4145 68.3156 66.7338 72.8305 71.2487" fill="#FFDC8D"/>
<path d="M70.735 39.1738C68.2864 45.1543 77.2757 55.2122 77.2757 55.2122C71.4731 61.0141 72.8305 71.2486 72.8305 71.2486C68.3156 66.7337 68.317 59.4144 72.8319 54.8989C72.3148 54.3951 71.8256 53.8661 71.3656 53.3139C69.4527 51.0292 68.0256 48.3489 67.1813 45.4025C66.4193 42.7402 67.9585 39.9664 70.6202 39.2044C70.6587 39.1924 70.6965 39.1831 70.735 39.1738Z" fill="#E8C57E"/>
<path d="M61.0166 55.4258H31.9316C31.3778 55.4258 30.9287 54.9769 30.9287 54.4229C30.9287 53.8688 31.3778 53.4199 31.9316 53.4199H61.0166C61.5704 53.4199 62.0195 53.8688 62.0195 54.4229C62.0195 54.9769 61.5704 55.4258 61.0166 55.4258Z" fill="#B3B3B3"/>
<path d="M61.0166 49.3223H31.9316C31.3778 49.3223 30.9287 48.8734 30.9287 48.3193C30.9287 47.7653 31.3778 47.3164 31.9316 47.3164H61.0166C61.5704 47.3164 62.0195 47.7653 62.0195 48.3193C62.0195 48.8734 61.5704 49.3223 61.0166 49.3223Z" fill="#B3B3B3"/>
<path d="M85.374 14.1365L83.2899 10.3223L81.2058 14.1365L77.3916 16.2206L81.2058 18.3046L83.2899 22.1189L85.374 18.3046L89.1882 16.2206L85.374 14.1365Z" fill="#D7D0FF"/>
<path d="M57.1096 28.3319C57.1055 30.6215 56.4234 32.8585 55.1495 34.7602C53.8755 36.662 52.0668 38.1431 49.952 39.0165C47.8372 39.8898 45.5112 40.1162 43.2679 39.667C41.0246 39.2177 38.9647 38.1131 37.3485 36.4926C35.7323 34.8722 34.6323 32.8086 34.1875 30.5627C33.7428 28.3168 33.9733 25.9893 34.8498 23.8744C35.7264 21.7596 37.2096 19.9522 39.1122 18.6807C41.0148 17.4092 43.2513 16.7307 45.5391 16.7309C47.0638 16.7183 48.5758 17.0099 49.9867 17.5887C51.3976 18.1675 52.6791 19.0219 53.7563 20.1019C54.8335 21.182 55.6849 22.4661 56.2606 23.8791C56.8364 25.2922 57.125 26.8059 57.1096 28.3319Z" fill="#3C9551"/>
<path d="M57.108 28.3316C57.1106 30.8751 56.2695 33.3476 54.7167 35.3612C52.4895 37.0716 49.7169 37.9135 46.9156 37.7298C44.1142 37.5461 41.4751 36.3495 39.4899 34.3629C37.5048 32.3762 36.309 29.735 36.1254 26.9314C35.9418 24.1279 36.7828 21.3531 38.4919 19.1241C40.5085 17.5632 42.9881 16.7209 45.5374 16.7306C48.6082 16.7359 51.5513 17.9605 53.7206 20.1356C55.89 22.3107 57.1083 25.2584 57.108 28.3316Z" fill="#64BC79"/>
<path d="M44.7199 32.3636C44.5076 32.364 44.2974 32.3223 44.1013 32.241C43.9052 32.1597 43.7271 32.0403 43.5773 31.8898L41.4227 29.7335C41.2718 29.5835 41.1519 29.4052 41.07 29.2088C40.9881 29.0124 40.9457 28.8017 40.9453 28.5888C40.9449 28.376 40.9865 28.1651 41.0677 27.9684C41.149 27.7717 41.2682 27.593 41.4186 27.4424C41.569 27.2919 41.7476 27.1726 41.9441 27.0914C42.1407 27.0101 42.3514 26.9684 42.564 26.9688C42.7767 26.9692 42.9872 27.0116 43.1835 27.0936C43.3798 27.1756 43.5579 27.2956 43.7078 27.4466L44.7199 28.4595L47.8866 25.2903C48.0364 25.1392 48.2146 25.0193 48.4108 24.9373C48.6071 24.8553 48.8176 24.8129 49.0303 24.8125C49.243 24.8121 49.4537 24.8538 49.6502 24.935C49.8468 25.0163 50.0254 25.1356 50.1758 25.2861C50.3262 25.4366 50.4454 25.6154 50.5266 25.8121C50.6078 26.0088 50.6494 26.2197 50.649 26.4325C50.6486 26.6454 50.6063 26.856 50.5243 27.0525C50.4424 27.2489 50.3225 27.4272 50.1716 27.5772L45.8624 31.8898C45.7126 32.0403 45.5345 32.1597 45.3384 32.241C45.1423 32.3223 44.9321 32.364 44.7199 32.3636Z" fill="white"/>
</g>
<defs>
<clipPath id="clip0_1383_1459">
<rect width="87" height="87" fill="white" transform="translate(9.56055)"/>
</clipPath>
</defs>
</svg>
