<svg width="239" height="234" viewBox="0 0 239 234" fill="none" xmlns="http://www.w3.org/2000/svg">
<g id="Frame 1000001140" clip-path="url(#clip0_2330_18209)">
<g id="Group 770668">
<g id="Background_Complete">
<g id="Group">
<path id="Vector" d="M20.5592 214.582H8.56445V214.723H20.5592V214.582Z" fill="#EBEBEB"/>
<path id="Vector_2" d="M123.739 213.047H75.6816V213.188H123.739V213.047Z" fill="#EBEBEB"/>
<path id="Vector_3" d="M38.714 219.834H17.1611V219.975H38.714V219.834Z" fill="#EBEBEB"/>
<path id="Vector_4" d="M233.34 218.883H208.911V219.024H233.34V218.883Z" fill="#EBEBEB"/>
<path id="Vector_5" d="M207.069 218.883H200.298V219.024H207.069V218.883Z" fill="#EBEBEB"/>
<path id="Vector_6" d="M188.656 216.496H175.647V216.637H188.656V216.496Z" fill="#EBEBEB"/>
<path id="Vector_7" d="M169.11 216.496H141.711V216.637H169.11V216.496Z" fill="#EBEBEB"/>
<path id="Vector_8" d="M112.94 183.972H3.7283C1.94844 183.972 0.5 182.523 0.5 180.743V27.2283C0.5 25.4484 1.94844 24 3.7283 24H112.94C114.719 24 116.168 25.4484 116.168 27.2283V180.743C116.168 182.523 114.719 183.972 112.94 183.972ZM3.7283 24.142C2.02592 24.142 0.641394 25.5265 0.641394 27.2289V180.744C0.641394 182.446 2.02592 183.831 3.7283 183.831H112.94C114.642 183.831 116.027 182.446 116.027 180.744V27.2283C116.027 25.5265 114.642 24.1414 112.94 24.1414L3.7283 24.142Z" fill="#EBEBEB"/>
<path id="Vector_9" d="M235.271 183.972H126.06C124.28 183.972 122.832 182.523 122.832 180.743V27.2283C122.832 25.4484 124.28 24 126.06 24H235.271C237.052 24 238.499 25.4484 238.499 27.2283V180.743C238.5 182.523 237.052 183.972 235.271 183.972ZM126.06 24.142C124.358 24.142 122.973 25.5265 122.973 27.2289V180.744C122.973 182.446 124.358 183.831 126.06 183.831H235.271C236.973 183.831 238.358 182.446 238.358 180.744V27.2283C238.358 25.5265 236.973 24.1414 235.271 24.1414L126.06 24.142Z" fill="#EBEBEB"/>
</g>
<g id="Group_2">
<g id="Group_3">
<g id="Group_4">
<path id="Vector_10" d="M21.3196 209.195H30.0283L30.0283 142.164H21.3196L21.3196 209.195Z" fill="#F0F0F0"/>
<path id="Vector_11" d="M106.26 142.164H30.0283V209.195H106.26V142.164Z" fill="#F5F5F5"/>
<path id="Vector_12" d="M106.95 167.461H40.0195V203.312H106.95V167.461Z" fill="#FAFAFA"/>
<path id="Vector_13" d="M106.95 151.854H40.0195V163.656H106.95V151.854Z" fill="#FAFAFA"/>
<path id="Vector_14" opacity="0.7" d="M39.4223 203.311H40.0195L40.0195 167.459H39.4223L39.4223 203.311Z" fill="#E6E6E6"/>
<path id="Vector_15" opacity="0.7" d="M39.4223 163.656H40.0195V151.853H39.4223V163.656Z" fill="#E6E6E6"/>
<path id="Vector_16" opacity="0.7" d="M21.3142 146.508H106.447V144.992H21.3142V146.508Z" fill="#E6E6E6"/>
</g>
<g id="Group_5">
<path id="Vector_17" d="M20.2973 145.633H30.0234V141.249H20.2973V145.633Z" fill="#F0F0F0"/>
<path id="Vector_18" d="M107.272 141.248H30.0234V145.632H107.272V141.248Z" fill="#F5F5F5"/>
</g>
</g>
<g id="Group_6">
<g id="Group_7">
<path id="Vector_19" d="M52.9 128.377C52.3961 127.717 52.1597 126.864 52.0782 126.021C52.007 125.173 52.0794 124.299 52.2988 123.475C52.7303 121.819 53.5651 120.291 54.6205 119.006C55.138 118.351 55.7267 117.767 56.3132 117.187C56.6266 116.921 56.9354 116.651 57.2544 116.393C57.5716 116.133 57.881 115.864 58.2266 115.646C58.9098 115.199 59.576 114.732 60.2994 114.359C61.0324 114 61.758 113.639 62.5238 113.355C61.9899 113.988 61.4159 114.543 60.8497 115.101C60.2807 115.654 59.7497 116.238 59.1835 116.774C58.6253 117.318 58.1225 117.907 57.5756 118.448C57.3137 118.728 57.0751 119.025 56.824 119.312C56.5768 119.601 56.3002 119.869 56.0887 120.18C55.1255 121.35 54.3151 122.601 53.6958 123.944C53.3773 124.615 53.1579 125.321 52.9961 126.058C52.8299 126.799 52.7875 127.568 52.9 128.377Z" fill="#E6E6E6"/>
<path id="Vector_20" d="M39.681 126.006C39.9281 125.29 40.0588 124.588 40.0503 123.906C40.0729 123.569 40.0022 123.237 39.9751 122.917C39.884 122.599 39.8416 122.284 39.7121 121.989C39.2551 120.796 38.4344 119.771 37.456 118.841C37.2173 118.604 36.9345 118.4 36.6778 118.175C36.4176 117.951 36.1699 117.715 35.8735 117.523C35.2944 117.13 34.7689 116.659 34.153 116.29C33.8544 116.095 33.5575 115.893 33.2611 115.685C32.9676 115.474 32.6707 115.262 32.3573 115.075C31.7465 114.672 31.1283 114.272 30.5322 113.787C31.2816 113.882 32.0089 114.061 32.7431 114.236C33.1118 114.32 33.4664 114.442 33.8165 114.581C34.1689 114.714 34.5201 114.852 34.8696 114.997L35.3939 115.216C35.5647 115.298 35.7282 115.398 35.8961 115.488C36.2321 115.67 36.5601 115.867 36.8921 116.058C37.2309 116.237 37.5289 116.493 37.8406 116.726C38.142 116.975 38.4593 117.198 38.7449 117.471C39.8829 118.548 40.8579 119.978 41.1418 121.634C41.1984 121.833 41.1922 122.047 41.2007 122.254C41.2041 122.462 41.2205 122.668 41.2041 122.873C41.1441 123.284 41.1022 123.689 40.9529 124.069C40.6905 124.827 40.2737 125.522 39.681 126.006Z" fill="#E6E6E6"/>
<path id="Vector_21" d="M40.2825 126.006C40.5941 124.422 40.619 122.897 40.3894 121.448C40.1677 120 39.661 118.648 38.9585 117.385L38.3958 116.452C38.1871 116.152 37.9512 115.868 37.7363 115.568L37.4105 115.119L37.0333 114.704C36.7816 114.427 36.535 114.142 36.289 113.853C35.7568 113.314 35.2003 112.784 34.6579 112.218C34.077 111.7 33.4854 111.18 32.9238 110.578C33.6941 110.817 34.4356 111.139 35.1867 111.46C35.8931 111.852 36.5978 112.273 37.2703 112.745C37.5887 113.005 37.9065 113.27 38.2187 113.543L38.6876 113.953L39.1044 114.422C39.3793 114.739 39.6564 115.055 39.9172 115.386L40.597 116.462C41.4267 117.946 41.9063 119.664 41.8605 121.364C41.8203 123.055 41.313 124.735 40.2825 126.006Z" fill="#E6E6E6"/>
<path id="Vector_22" d="M52.177 126.841C51.0107 125.446 50.1166 123.872 49.3304 122.252C48.5595 120.624 47.9363 118.922 47.4702 117.171C47.0229 115.415 46.7474 113.606 46.6869 111.784C46.6762 109.96 46.8815 108.114 47.5087 106.41C47.6648 108.222 47.8639 109.933 48.1591 111.64C48.4849 113.342 48.8666 115.019 49.2908 116.698C49.7348 118.372 50.2116 120.043 50.7065 121.723C51.1962 123.408 51.7104 125.092 52.177 126.841Z" fill="#E6E6E6"/>
<path id="Vector_23" d="M51.5943 126.56C50.2149 125.282 49.0679 123.805 48.0103 122.274C46.9674 120.733 46.041 119.109 45.2559 117.413C44.4834 115.711 43.8409 113.94 43.4065 112.109C43.0061 110.272 42.7832 108.371 43.0016 106.504C43.57 108.297 44.1582 109.991 44.8187 111.67C45.4923 113.342 46.2219 114.984 46.9645 116.627C47.7201 118.264 48.5046 119.894 49.2879 121.539C50.0678 123.187 50.8602 124.835 51.5943 126.56Z" fill="#E6E6E6"/>
<path id="Vector_24" d="M53.894 128.713C52.264 127.774 50.8161 126.591 49.4435 125.336C48.0827 124.066 46.817 122.69 45.6728 121.212C44.5394 119.726 43.5174 118.143 42.6854 116.456C41.8852 114.754 41.2432 112.951 41.0391 111.082C41.9938 112.702 42.9456 114.223 43.9642 115.711C44.9947 117.191 46.0721 118.628 47.1625 120.064C48.2648 121.492 49.3937 122.906 50.5243 124.333C51.6526 125.765 52.7928 127.195 53.894 128.713Z" fill="#E6E6E6"/>
<path id="Vector_25" d="M50.4272 126.249C48.8555 125.503 47.4597 124.473 46.1509 123.353C44.8524 122.219 43.6669 120.952 42.6093 119.579C41.5494 118.207 40.6615 116.694 39.9454 115.109C39.2509 113.513 38.7854 111.802 38.6797 110.074C39.5456 111.585 40.3346 113.028 41.2491 114.409C42.1659 115.784 43.0991 117.13 44.1052 118.437C45.1097 119.744 46.1436 121.034 47.2057 122.322C48.2645 123.616 49.3493 124.894 50.4272 126.249Z" fill="#E6E6E6"/>
<path id="Vector_26" d="M53.1932 127.824C51.9201 127.008 51.1181 125.506 50.863 123.941C50.6147 122.355 50.9524 120.722 51.5999 119.324L51.8358 118.79L52.1248 118.293L52.7305 117.318C52.9618 117.018 53.1994 116.725 53.4432 116.436C53.6909 116.153 53.9126 115.845 54.1948 115.599C54.7479 115.095 55.2807 114.574 55.883 114.142C56.5023 113.727 57.1132 113.311 57.7726 112.969C57.3926 113.623 56.9639 114.206 56.5436 114.788C56.1262 115.371 55.7535 115.976 55.3384 116.538C54.9504 117.118 54.6065 117.717 54.2293 118.287L53.7559 119.184L53.5105 119.625L53.3204 120.084C52.7622 121.289 52.3855 122.546 52.3346 123.846C52.2962 125.141 52.5252 126.496 53.1932 127.824Z" fill="#E6E6E6"/>
<path id="Vector_27" d="M52.1476 126.019C51.0051 124.95 50.215 123.53 49.7518 121.993C49.296 120.452 49.2383 118.734 49.6823 117.125C49.9006 116.322 50.2331 115.548 50.6754 114.852C51.1092 114.152 51.6295 113.515 52.2234 112.973C53.402 111.878 54.7871 111.08 56.2803 110.643C55.1904 111.751 54.1622 112.812 53.3257 113.96C52.9026 114.529 52.5333 115.119 52.2291 115.731C51.914 116.337 51.6691 116.97 51.4972 117.621C51.1398 118.918 51.0538 120.295 51.198 121.704C51.3411 123.115 51.6725 124.546 52.1476 126.019Z" fill="#E6E6E6"/>
<path id="Vector_28" d="M49.3801 124.68L40.5322 116.186L40.888 124.516L49.3801 124.68Z" fill="#E6E6E6"/>
</g>
<g id="Group_8">
<path id="Vector_29" d="M59.0531 123.779H35.541L38.62 141.247H55.9741L59.0531 123.779Z" fill="#F5F5F5"/>
<path id="Vector_30" d="M44.3645 123.779H35.541L38.62 141.247H43.2543L44.3645 123.779Z" fill="#EBEBEB"/>
</g>
</g>
<g id="Group_9">
<g id="Group_10">
<path id="Vector_31" d="M225.158 209.194H152.962L146.555 89.8281H218.75L225.158 209.194Z" fill="#EBEBEB"/>
<path id="Vector_32" d="M227.367 209.194H155.171L148.764 89.8281H220.959L227.367 209.194Z" fill="#F5F5F5"/>
</g>
<g id="Group_11">
<path id="Vector_33" d="M191.152 196.88H184.705L184.968 102.141H191.414L191.152 196.88Z" fill="white"/>
<path id="Vector_34" d="M208.211 196.88H201.765L202.028 102.141H208.473L208.211 196.88Z" fill="white"/>
<path id="Vector_35" d="M174.099 196.88H167.653L167.916 102.141H174.362L174.099 196.88Z" fill="white"/>
</g>
</g>
<g id="Group_12">
<g id="Group_13">
<g id="Group_14">
<g id="Group_15">
<g id="Group_16">
<g id="Group_17">
<path id="Vector_36" d="M213.822 195.667H119.207C116.911 195.667 115.049 193.805 115.049 191.509V53.7285C115.049 51.4317 116.911 49.5703 119.207 49.5703H213.822C216.119 49.5703 217.98 51.4322 217.98 53.7285V191.509C217.98 193.805 216.119 195.667 213.822 195.667Z" fill="#060000"/>
</g>
</g>
<g id="Group_18">
<g id="Group_19">
<g id="Group_20">
<path id="Vector_37" d="M213.825 195.668C213.825 195.668 213.932 195.659 214.143 195.646C214.355 195.632 214.669 195.584 215.07 195.467C215.466 195.337 215.947 195.118 216.43 194.729C216.906 194.339 217.384 193.77 217.678 193.009C217.833 192.633 217.921 192.205 217.949 191.752C217.972 191.298 217.954 190.815 217.958 190.311C217.957 189.302 217.955 188.199 217.954 187.004C217.951 184.613 217.948 181.854 217.945 178.749C217.937 166.327 217.927 148.353 217.913 126.145C217.91 115.041 217.906 102.877 217.901 89.8196C217.9 83.2908 217.898 76.5381 217.896 69.5828C217.895 66.105 217.895 62.5767 217.894 58.9997C217.892 57.2122 217.889 55.4129 217.886 53.6019C217.869 52.7136 217.528 51.8423 216.969 51.1493C216.397 50.4663 215.604 49.9584 214.726 49.7666C214.286 49.6666 213.839 49.6576 213.375 49.6634C212.915 49.6634 212.454 49.6634 211.992 49.6634C211.069 49.6634 210.143 49.6639 209.214 49.6639C207.356 49.6643 205.488 49.6643 203.608 49.6648C199.849 49.6652 196.047 49.6657 192.204 49.6661C184.519 49.667 176.672 49.6679 168.683 49.6688C152.707 49.6693 136.165 49.6702 119.222 49.6707C118.186 49.667 117.16 50.0759 116.416 50.7914C115.665 51.4996 115.206 52.5019 115.162 53.529C115.141 55.6245 115.156 57.7309 115.152 59.821C115.152 64.0054 115.151 68.1622 115.151 72.2885C115.151 80.5414 115.15 88.6733 115.15 96.6637C115.148 112.645 115.146 128.059 115.144 142.743C115.141 157.427 115.138 171.381 115.135 184.44C115.134 186.072 115.134 187.691 115.133 189.294C115.137 190.095 115.124 190.899 115.141 191.686C115.167 192.466 115.435 193.228 115.879 193.859C116.324 194.492 116.95 194.986 117.656 195.281C118.011 195.425 118.384 195.518 118.762 195.564C119.139 195.597 119.528 195.59 119.915 195.59C121.46 195.591 122.991 195.591 124.506 195.591C130.567 195.594 136.384 195.596 141.937 195.598C164.145 195.611 182.117 195.622 194.538 195.629C200.747 195.637 205.568 195.644 208.839 195.648C210.472 195.653 211.719 195.656 212.558 195.658C213.395 195.661 213.825 195.668 213.825 195.668C213.825 195.668 213.395 195.674 212.558 195.678C211.718 195.68 210.472 195.683 208.838 195.688C205.568 195.692 200.746 195.698 194.537 195.707C182.116 195.714 164.145 195.725 141.936 195.738C136.384 195.741 130.567 195.742 124.505 195.745C122.99 195.745 121.459 195.745 119.914 195.746C119.528 195.745 119.141 195.754 118.744 195.719C118.352 195.671 117.964 195.575 117.595 195.426C116.861 195.12 116.211 194.607 115.749 193.95C115.287 193.295 115.008 192.502 114.98 191.692C114.962 190.891 114.975 190.097 114.97 189.294C114.97 187.69 114.969 186.071 114.969 184.439C114.966 171.38 114.963 157.426 114.96 142.742C114.958 128.058 114.956 112.643 114.954 96.6628C114.954 88.6724 114.953 80.5405 114.953 72.2876C114.953 68.1613 114.952 64.0045 114.952 59.8201C114.957 57.7259 114.942 55.6335 114.963 53.5186C115.008 52.4411 115.491 51.3889 116.278 50.6464C117.058 49.8962 118.136 49.4667 119.222 49.4707C136.164 49.4712 152.706 49.4721 168.683 49.473C176.672 49.4739 184.518 49.4748 192.204 49.4752C196.046 49.4757 199.848 49.4761 203.608 49.477C205.487 49.4775 207.356 49.4775 209.214 49.4779C210.143 49.4779 211.069 49.4784 211.992 49.4784C212.454 49.4784 212.915 49.4784 213.375 49.4784C213.83 49.473 214.309 49.4815 214.766 49.5865C215.684 49.7882 216.513 50.3186 217.109 51.0327C217.694 51.7563 218.049 52.6681 218.067 53.5956C218.069 55.4084 218.071 57.2099 218.073 58.9993C218.072 62.5758 218.071 66.1045 218.071 69.5824C218.069 76.5381 218.067 83.2903 218.066 89.8192C218.061 102.877 218.057 115.04 218.053 126.145C218.04 148.353 218.029 166.326 218.022 178.749C218.018 181.854 218.016 184.612 218.013 187.003C218.011 188.199 218.01 189.302 218.008 190.311C218.002 190.815 218.019 191.295 217.994 191.754C217.964 192.211 217.874 192.643 217.716 193.023C217.416 193.79 216.931 194.362 216.45 194.752C215.961 195.141 215.476 195.358 215.076 195.485C214.672 195.6 214.356 195.645 214.144 195.656C213.932 195.666 213.825 195.668 213.825 195.668Z" fill="#263238"/>
</g>
</g>
</g>
</g>
<g id="Group_21" opacity="0.3">
<g id="Group_22">
<path id="Vector_38" d="M124.032 192.368H210.421L209.473 174.4V164.836L124.032 178.186V192.368Z" fill="black"/>
</g>
</g>
<g id="Group_23" opacity="0.3">
<g id="Group_24">
<path id="Vector_39" d="M192.492 49.8711L194.455 55.6935V58.5459H192.241L192.492 49.8711Z" fill="black"/>
</g>
</g>
<g id="Group_25">
<g id="Group_26">
<g id="Group_27">
<path id="Vector_40" d="M119.652 55.4277V189.632H189.663H213.403V55.4277H119.652Z" fill="white"/>
<g id="Group_28">
<g id="Group_29">
<g id="Group_30">
<path id="Vector_41" d="M213.397 165.636C213.397 165.636 213.393 165.462 213.39 165.12C213.388 164.776 213.386 164.266 213.383 163.595C213.38 162.247 213.375 160.253 213.37 157.654C213.364 152.453 213.356 144.836 213.345 135.168C213.336 115.826 213.324 88.2752 213.309 55.4287L213.397 55.5169C185.698 55.5201 153.644 55.5241 119.646 55.5282L119.746 55.4287C119.746 55.4665 119.746 55.507 119.746 55.548C119.736 107.139 119.728 154.252 119.721 189.633L119.646 189.558C141.213 189.572 158.716 189.584 170.828 189.591C176.882 189.6 181.589 189.607 184.784 189.611C186.38 189.616 187.598 189.62 188.418 189.622C189.237 189.626 189.658 189.634 189.658 189.634C189.658 189.634 189.237 189.641 188.418 189.645C187.598 189.647 186.38 189.651 184.784 189.656C181.589 189.66 176.882 189.667 170.828 189.676C158.715 189.684 141.213 189.695 119.646 189.709H119.572V189.634C119.565 154.253 119.556 107.14 119.547 55.5489C119.547 55.5079 119.547 55.467 119.547 55.4296V55.3301H119.646C153.644 55.3341 185.698 55.3382 213.397 55.3413H213.485V55.4296C213.47 88.2761 213.458 115.827 213.449 135.169C213.439 144.838 213.43 152.454 213.424 157.655C213.419 160.254 213.414 162.248 213.411 163.596C213.408 164.267 213.406 164.777 213.404 165.121C213.402 165.462 213.397 165.636 213.397 165.636Z" fill="#263238"/>
</g>
</g>
</g>
</g>
</g>
</g>
</g>
<g id="Group_31">
<g id="Group_32">
<g id="Group_33">
<path id="Vector_42" d="M192.506 59.692H145.07V48.782C145.07 47.2092 146.345 45.9336 147.919 45.9336H189.657C191.23 45.9336 192.506 47.2088 192.506 48.782V59.692Z" fill="#FFD1B5"/>
</g>
</g>
<g id="Group_34">
<g id="Group_35">
<path id="Vector_43" d="M174.816 40.7598H162.743L164.154 51.1083H173.248L174.816 40.7598Z" fill="#FFD1B5"/>
</g>
</g>
<g id="Group_36">
<g id="Group_37">
<g id="Group_38">
<path id="Vector_44" d="M189.443 45.9335C189.443 45.9884 180.188 46.033 168.774 46.033C157.356 46.033 148.103 45.9884 148.103 45.9335C148.103 45.8786 157.356 45.834 168.774 45.834C180.188 45.834 189.443 45.8786 189.443 45.9335Z" fill="#FFDDC8"/>
</g>
</g>
</g>
<g id="Group_39">
<g id="Group_40">
<g id="Group_41">
<path id="Vector_45" d="M146.121 57.4726C146.066 57.4726 146.021 55.5266 146.021 53.1262C146.021 50.7249 146.066 48.7793 146.121 48.7793C146.176 48.7793 146.221 50.7249 146.221 53.1262C146.221 55.5266 146.176 57.4726 146.121 57.4726Z" fill="#FFDDC8"/>
</g>
</g>
</g>
<g id="Group_42">
<g id="Group_43">
<g id="Group_44">
<path id="Vector_46" d="M190.971 56.445C190.916 56.445 190.871 54.6782 190.871 52.4989C190.871 50.3191 190.916 48.5527 190.971 48.5527C191.026 48.5527 191.07 50.3191 191.07 52.4989C191.07 54.6782 191.026 56.445 190.971 56.445Z" fill="#FFDDC8"/>
</g>
</g>
</g>
<g id="Group_45">
<g id="Group_46">
<g id="Group_47">
<path id="Vector_47" d="M188.689 58.2753C188.689 58.3302 179.189 58.3748 167.472 58.3748C155.751 58.3748 146.253 58.3302 146.253 58.2753C146.253 58.2204 155.751 58.1758 167.472 58.1758C179.188 58.1758 188.689 58.2204 188.689 58.2753Z" fill="#FFDDC8"/>
</g>
</g>
</g>
</g>
</g>
<g id="Group_48">
<g id="Group 770640">
<g id="Group_49">
<path id="Vector_48" d="M202.12 107.434H148.74V111.118H202.12V107.434Z" fill="#FFDDC8"/>
</g>
<g id="Group_50">
<path id="Vector_49" d="M175.93 114.959H148.74V118.617H175.93V114.959Z" fill="#FFDDC8"/>
</g>
<g id="Group_51">
<path id="Vector_50" d="M141.484 119.716H130.938C129.745 119.716 128.777 118.815 128.777 117.703V107.873C128.777 106.761 129.744 105.859 130.938 105.859H141.484C142.677 105.859 143.644 106.761 143.644 107.873V117.703C143.644 118.815 142.677 119.716 141.484 119.716Z" fill="#FF8D46"/>
</g>
</g>
<g id="Group 770641">
<g id="Group_52">
<path id="Vector_51" d="M202.12 81.9199H148.74V85.6039H202.12V81.9199Z" fill="#FFDDC8"/>
</g>
<g id="Group_53">
<path id="Vector_52" d="M175.93 89.4453H148.74V93.1037H175.93V89.4453Z" fill="#FFDDC8"/>
</g>
<g id="Group_54">
<path id="Vector_53" d="M141.498 94.2028H130.94C129.746 94.2028 128.777 93.3016 128.777 92.1893V82.3592C128.777 81.2474 129.745 80.3457 130.94 80.3457H141.498C142.692 80.3457 143.661 81.2469 143.661 82.3592V92.1893C143.661 93.3016 142.693 94.2028 141.498 94.2028Z" fill="#FF8D46"/>
</g>
</g>
<g id="Group_55">
<g id="Group_56">
<path id="Vector_54" d="M135.511 116.089L131.63 113.089L132.676 111.734L135.279 113.746L138.981 109.486L140.273 110.61L135.511 116.089Z" fill="white"/>
</g>
</g>
<g id="Group_57">
<g id="Group_58">
<path id="Vector_55" d="M135.511 90.5729L131.63 87.5733L132.676 86.2187L135.279 88.2301L138.981 83.9707L140.273 85.0939L135.511 90.5729Z" fill="white"/>
</g>
</g>
</g>
<g id="Group_59">
<g id="Group_60">
<g id="Group_61">
<path id="Vector_56" d="M138.338 129.479L134.984 126.888L135.889 125.717L138.137 127.455L141.335 123.775L142.451 124.745L138.338 129.479Z" fill="white"/>
</g>
</g>
</g>
<g id="Group 770642">
<g id="Group_62">
<path id="Vector_57" d="M200.756 132.438H148.981V135.62H200.756V132.438Z" fill="#FFDDC8"/>
</g>
<g id="Group_63">
<path id="Vector_58" d="M172.47 138.939H148.981V142.1H172.47V138.939Z" fill="#FFDDC8"/>
</g>
<g id="Group_64">
<g id="Group_65">
<path id="Vector_59" d="M141.531 144.133H130.907C129.733 144.133 128.777 143.246 128.777 142.155V132.29C128.777 131.199 129.733 130.312 130.907 130.312H141.531C142.705 130.312 143.661 131.199 143.661 132.29V142.155C143.661 143.246 142.706 144.133 141.531 144.133ZM130.908 130.766C130.002 130.766 129.266 131.449 129.266 132.29V142.155C129.266 142.996 130.002 143.68 130.908 143.68H141.531C142.437 143.68 143.173 142.996 143.173 142.155V132.29C143.173 131.45 142.437 130.766 141.531 130.766H130.908Z" fill="#FF725E"/>
</g>
</g>
</g>
<g id="Group 770643">
<g id="Group_66">
<path id="Vector_60" d="M200.756 155.826H148.981V159.009H200.756V155.826Z" fill="#FFDDC8"/>
</g>
<g id="Group_67">
<path id="Vector_61" d="M172.47 162.326H148.981V165.487H172.47V162.326Z" fill="#FFDDC8"/>
</g>
<g id="Group_68">
<g id="Group_69">
<path id="Vector_62" d="M141.531 167.52H130.907C129.733 167.52 128.777 166.633 128.777 165.542V155.677C128.777 154.586 129.733 153.699 130.907 153.699H141.531C142.705 153.699 143.661 154.586 143.661 155.677V165.542C143.661 166.633 142.706 167.52 141.531 167.52ZM130.908 154.152C130.002 154.152 129.266 154.836 129.266 155.677V165.542C129.266 166.382 130.002 167.067 130.908 167.067H141.531C142.437 167.067 143.173 166.383 143.173 165.542V155.677C143.173 154.837 142.437 154.152 141.531 154.152H130.908Z" fill="#FF725E"/>
</g>
</g>
</g>
</g>
</g>
</g>
<g id="Shadow_1_">
<path id="_x3C_Path_x3E__314_" d="M120.283 234.738C180.846 234.738 229.941 231.871 229.941 228.334C229.941 224.797 180.846 221.93 120.283 221.93C59.7199 221.93 10.624 224.797 10.624 228.334C10.624 231.871 59.7199 234.738 120.283 234.738Z" fill="#F5F5F5"/>
</g>
<g id="Group_70">
<path id="Vector_63" d="M56.8795 178.618L62.8599 178.101L58.4882 111.223L49.7074 111.982L56.8795 178.618Z" fill="#FF8D46"/>
<path id="Vector_64" d="M46.9973 67.1747L53.163 63.0273L52.9379 60.4258L46.5511 62.016L46.9973 67.1747Z" fill="#263238"/>
<path id="Vector_65" d="M46.4189 65.7876L53.4487 61.0881L58.2643 108.623L49.4829 109.382L46.4189 65.7876Z" fill="#FF8D46"/>
<path id="Vector_66" d="M50.0585 111.956L58.126 111.258L57.901 108.657L49.8335 109.354L50.0585 111.956Z" fill="#263238"/>
<path id="Vector_67" d="M60.0044 185.798C60.0385 186.192 60.292 186.492 60.57 186.468C60.8488 186.444 61.0469 186.105 61.0128 185.711C60.9788 185.317 60.7252 185.017 60.4472 185.041C60.1682 185.064 59.9703 185.404 60.0044 185.798Z" fill="#FF8D46"/>
<path id="Vector_68" d="M59.6301 185.956L61.4105 185.803L62.8603 178.102L56.8799 178.619L59.6301 185.956Z" fill="#263238"/>
<path id="Vector_69" d="M45.8781 98.0193C45.7769 98.0479 45.6678 98.055 45.5572 98.0372C45.1519 97.9714 44.8765 97.5891 44.9429 97.1836C46.3523 88.5401 44.7455 71.7615 44.0639 67.8554C43.8627 66.7035 44.303 65.5284 45.2131 64.7908L46.8651 63.4504C47.1844 63.1915 47.6523 63.2396 47.9111 63.5584C48.1699 63.8777 48.1213 64.3458 47.8025 64.6045L46.1501 65.9457C45.6585 66.3444 45.4207 66.9782 45.5295 67.5999C46.2452 71.7018 47.8708 88.4702 46.4113 97.4227C46.3628 97.7176 46.1478 97.9433 45.8781 98.0193Z" fill="#263238"/>
</g>
<g id="Group_71">
<g id="Group_72">
<path id="Vector_70" d="M44.3066 103.673L47.3336 103.535L45.9663 109.28C45.9663 109.28 44.2765 108.162 43.0327 106.692C42.5132 106.078 42.5778 105.162 43.1869 104.637L44.3066 103.673Z" fill="#ECC696"/>
<path id="Vector_71" d="M50.8528 106.637L49.4939 111.326L45.9717 109.279L47.339 103.535L50.8528 106.637Z" fill="#ECC696"/>
</g>
<g id="Group_73">
<path id="Vector_72" d="M98.7503 71.8555C99.385 72.5164 99.9199 73.1012 100.469 73.7442C101.014 74.3744 101.548 75.011 102.072 75.656C103.127 76.9394 104.114 78.2811 105.071 79.6554C106.973 82.4092 108.704 85.3408 110.048 88.6122C110.213 89.0242 110.358 89.4542 110.513 89.8739L110.742 90.5169C110.868 90.9117 110.963 91.3129 111.008 91.6916C111.198 93.2374 110.869 94.4352 110.516 95.4486C109.769 97.4615 108.724 98.9241 107.648 100.308C105.454 103.03 103.033 105.229 100.333 107.251L97.9185 104.677C99.7919 102.264 101.667 99.7085 103.116 97.1966C103.828 95.9522 104.441 94.6476 104.672 93.6175C104.786 93.1171 104.761 92.7025 104.706 92.6648C104.698 92.6475 104.683 92.6642 104.685 92.6808L104.472 92.2137C104.325 91.8964 104.193 91.579 104.036 91.2617C102.758 88.7184 101.114 86.2046 99.3024 83.7816C98.408 82.5621 97.4579 81.3701 96.4988 80.1839C96.0195 79.5908 95.5301 79.0048 95.0342 78.4283L93.5723 76.7488L98.7503 71.8555Z" fill="#ECC696"/>
<path id="Vector_73" d="M94.0371 106.704L96.7666 112.096L99.432 109.802L97.2439 105.965L94.0371 106.704Z" fill="#ECC696"/>
<path id="Vector_74" d="M73.5143 75.0056C71.8552 78.1657 70.1322 81.2905 68.3439 84.3802C67.4642 85.933 66.5454 87.4641 65.6471 89.0073L64.2715 91.3062L63.9254 91.8827C63.7533 92.1591 63.5613 92.486 63.393 92.7035C63.219 92.946 63.0437 93.1821 62.8754 93.383C62.704 93.598 62.5331 93.8015 62.3649 93.9889C61.002 95.5091 59.6367 96.7408 58.2457 97.9673C56.8426 99.1657 55.4421 100.329 54.0006 101.435C51.1355 103.671 48.1981 105.749 45.1526 107.732L42.958 104.968L50.5449 97.5041C51.7862 96.2513 53.0364 95.0171 54.2187 93.7503C55.4024 92.5026 56.5829 91.2173 57.5048 89.9882C57.6251 89.8353 57.7307 89.6881 57.8273 89.5454C57.9367 89.397 58.0154 89.2658 58.0935 89.1391C58.1913 88.9971 58.2041 88.9248 58.2675 88.8218L58.5631 88.2223L59.7512 85.8153C60.5619 84.2209 61.3527 82.615 62.1819 81.0301C63.8115 77.8451 65.5076 74.6947 67.2665 71.5801L73.5143 75.0056Z" fill="#ECC696"/>
<path id="Vector_75" d="M91.4769 53.4014C91.3982 53.7725 91.5294 54.1224 91.77 54.1832C92.0105 54.244 92.269 53.9919 92.3471 53.6208C92.4258 53.2497 92.2946 52.8997 92.0547 52.839C91.8141 52.7788 91.5556 53.0303 91.4769 53.4014Z" fill="#0F264C"/>
<path id="Vector_76" d="M91.4749 54.1133C91.4749 54.1133 91.8569 56.4659 92.5581 57.7314C91.7782 58.1799 90.7314 57.6207 90.7314 57.6207L91.4749 54.1133Z" fill="#ECC696"/>
<path id="Vector_77" d="M92.4489 51.1479C92.4054 51.1479 92.3613 51.1351 92.3229 51.1088C92.2941 51.0897 91.621 50.6386 90.731 51.0039C90.6184 51.05 90.4873 50.9969 90.4406 50.883C90.3939 50.7691 90.4483 50.6392 90.5615 50.5925C91.6831 50.1306 92.5417 50.7186 92.5776 50.7435C92.678 50.8139 92.7023 50.9521 92.6326 51.0525C92.5891 51.114 92.5193 51.1479 92.4489 51.1479Z" fill="#0F264C"/>
<path id="Vector_78" d="M78.5358 54.8145C79.3426 58.2528 80.2588 64.5537 77.9414 66.8481C77.9414 66.8481 79.0163 70.3363 85.4055 70.3363C92.4313 70.3363 88.6282 66.8487 88.6282 66.8487C84.7586 65.9331 84.7477 63.0879 85.3121 60.4167L78.5358 54.8145Z" fill="#ECC696"/>
<path id="Vector_79" d="M77.0626 68.0461C76.5162 66.9418 75.9135 65.6782 77.0447 65.2827C78.2898 64.847 85.1793 64.403 87.5927 65.2207C90.0061 66.0384 89.4168 68.2777 89.4168 68.2777L77.0626 68.0461Z" fill="#9FC6FF"/>
<path id="Vector_80" d="M67.852 228.581C67.367 228.581 66.8648 228.507 66.6223 228.448C66.5801 228.438 66.5474 228.404 66.5391 228.361C66.5308 228.319 66.5487 228.274 66.5839 228.249C66.637 228.212 67.8859 227.329 68.5827 227.48C68.7465 227.516 68.8706 227.603 68.9512 227.74C69.1029 227.997 69.0459 228.171 68.9717 228.272C68.797 228.507 68.3332 228.581 67.852 228.581ZM66.9333 228.284C67.637 228.404 68.5993 228.401 68.7926 228.139C68.8111 228.114 68.868 228.038 68.7593 227.852C68.7107 227.77 68.6377 227.72 68.536 227.698C68.1195 227.606 67.3696 228.009 66.9333 228.284Z" fill="white"/>
<path id="Vector_81" d="M66.6479 228.452C66.6275 228.452 66.6076 228.446 66.5897 228.436C66.5552 228.415 66.5353 228.376 66.5372 228.337C66.5392 228.279 66.5999 226.924 67.1284 226.475C67.2673 226.356 67.4272 226.308 67.6012 226.329C67.8738 226.363 67.9467 226.532 67.9653 226.63C68.0677 227.158 67.17 228.18 66.7023 228.438C66.685 228.447 66.6658 228.452 66.6479 228.452ZM67.5226 226.547C67.4311 226.547 67.3485 226.579 67.2717 226.644C66.9333 226.932 66.8149 227.727 66.7759 228.12C67.2378 227.759 67.806 226.985 67.7458 226.672C67.7401 226.641 67.726 226.569 67.5731 226.55C67.5558 226.548 67.5392 226.547 67.5226 226.547Z" fill="white"/>
<path id="Vector_82" d="M96.0791 228.582C95.5167 228.582 94.9352 228.51 94.6338 228.45C94.5884 228.441 94.5532 228.406 94.5455 228.36C94.5378 228.314 94.5589 228.268 94.5986 228.244C94.8347 228.106 96.9205 226.912 97.424 227.738C97.5654 227.97 97.5155 228.133 97.4477 228.23C97.2602 228.499 96.6812 228.582 96.0791 228.582ZM94.9895 228.284C95.8718 228.406 97.0625 228.393 97.2666 228.102C97.2839 228.077 97.3306 228.011 97.2353 227.855C96.9499 227.385 95.6825 227.922 94.9895 228.284Z" fill="white"/>
<path id="Vector_83" d="M94.6554 228.45C94.633 228.45 94.6113 228.444 94.5927 228.431C94.5607 228.409 94.5422 228.372 94.5441 228.333C94.5473 228.279 94.6247 227.015 95.2031 226.522C95.381 226.37 95.587 226.302 95.8179 226.327C96.1302 226.359 96.221 226.519 96.2428 226.647C96.333 227.192 95.2639 228.184 94.7015 228.441C94.6868 228.448 94.6708 228.45 94.6554 228.45ZM95.7284 226.546C95.587 226.546 95.4616 226.593 95.3471 226.691C94.967 227.016 94.8301 227.778 94.7853 228.144C95.3509 227.8 96.0764 227.014 96.0221 226.684C96.0176 226.656 96.0035 226.57 95.7949 226.549C95.7725 226.547 95.7501 226.546 95.7284 226.546Z" fill="white"/>
<path id="Vector_84" d="M89.4941 228.342H94.1942L94.2422 217.457H89.5415L89.4941 228.342Z" fill="#ECC696"/>
<path id="Vector_85" d="M61.2637 228.342H65.9644L67.9062 217.457H63.2061L61.2637 228.342Z" fill="#ECC696"/>
<path id="Vector_86" d="M66.2813 227.795H61.0009C60.809 227.795 60.6478 227.929 60.6132 228.116L59.8461 232.294C59.7667 232.727 60.1231 233.137 60.5665 233.13C62.4085 233.098 63.3004 232.99 65.6223 232.99C67.051 232.99 69.9999 233.138 71.9731 233.138C73.9028 233.138 74.1286 231.187 73.3142 231.011C69.6621 230.219 68.2558 229.126 67.0561 228.083C66.8392 227.896 66.5622 227.795 66.2813 227.795Z" fill="#14365B"/>
<path id="Vector_87" d="M94.1403 227.795H89.0071C88.8151 227.795 88.6539 227.929 88.6194 228.116L87.8522 232.294C87.7729 232.727 88.1178 233.137 88.5605 233.13C90.4108 233.099 93.0827 232.99 95.4097 232.99C98.1308 232.99 100.487 233.139 103.678 233.139C105.608 233.139 106.068 231.188 105.253 231.011C101.545 230.207 98.5397 230.121 95.2862 228.162C94.9331 227.948 94.546 227.795 94.1403 227.795Z" fill="#14365B"/>
<path id="Vector_88" d="M68.9731 67.9113C64.607 68.9216 60.0176 80.9322 60.0176 80.9322L69.0997 86.9963C69.0997 86.9963 72.2707 82.3071 74.5599 77.0606C76.9592 71.5634 73.437 66.8786 68.9731 67.9113Z" fill="#467AC9"/>
<path id="Vector_89" d="M72.4185 75.5703L68.6641 86.7088L69.0908 86.9968C69.0908 86.9968 70.8036 84.4567 72.629 81.0273L72.4185 75.5703Z" fill="#0A1B35"/>
<path id="Vector_90" d="M98.3003 88.9081C98.2657 94.1546 97.9484 100.681 97.1671 108.781H72.0224C71.7006 104.923 73.3987 86.0929 68.9795 67.9094C68.9795 67.9094 73.2522 67.0456 77.3521 66.8473C80.5582 66.6937 85.2058 66.5914 88.037 66.8473C91.7735 67.1864 95.3174 68.1525 95.3174 68.1525C95.3174 68.1525 97.4679 70.4814 98.1198 81.4031C98.2472 83.5592 98.3175 86.0417 98.3003 88.9081Z" fill="#467AC9"/>
<path id="Vector_91" d="M98.2836 88.9078C96.7621 86.131 94.0007 80.5582 94.3897 77.3848L98.1025 81.4028C98.2305 83.559 98.3009 86.0414 98.2836 88.9078Z" fill="#0A1B35"/>
<path id="Vector_92" d="M90.3687 72.4063C89.9721 76.8639 100.126 87.6582 100.126 87.6582L108.265 81.0291C108.265 81.0291 104.919 75.2298 100.658 71.1094C95.8999 66.5079 90.8153 67.3851 90.3687 72.4063Z" fill="#467AC9"/>
<g id="Group_74">
<path id="Vector_93" d="M94.2442 217.457L94.2206 223.068H89.5186L89.5422 217.457H94.2442Z" fill="#EA7063"/>
<path id="Vector_94" d="M63.2132 217.457H67.9158L66.912 223.068H62.21L63.2132 217.457Z" fill="#EA7063"/>
</g>
<path id="Vector_95" d="M79.3779 49.5179C78.6895 54.1463 78.0541 56.8117 79.8379 59.7267C82.522 64.112 88.5362 63.4319 90.5779 59.1541C92.4154 55.303 93.2325 48.3815 89.1978 45.4512C85.2233 42.5643 80.067 44.8894 79.3779 49.5179Z" fill="#ECC696"/>
<path id="Vector_96" d="M93.2915 47.3229C91.1001 48.5564 88.7929 48.6997 88.7929 48.6997C87.6227 54.0524 84.5062 60.1921 79.467 58.4428C77.5309 57.771 75.6435 53.1522 75.4298 49.0203C75.0919 49.4291 74.8699 49.9512 74.701 50.1668C74.2743 47.5187 74.9953 45.5819 75.2967 44.7284C76.6921 40.7744 77.6211 43.4015 79.1049 41.0015C80.0863 39.4141 81.8279 38.5971 84.867 38.4902C84.0142 38.9343 83.8542 39.6451 85.1159 39.5389C86.3776 39.432 91.7585 39.1422 94.891 41.2625C92.7713 41.7399 94.0656 45.111 96.8904 43.3119C95.9128 44.9824 94.6332 46.5679 93.2915 47.3229Z" fill="#0F264C"/>
<path id="Vector_97" d="M85.2002 52.3827C85.2028 53.6149 85.698 54.821 86.3295 55.638C87.2796 56.8671 88.3775 56.2599 88.636 54.8952C88.8683 53.6668 88.6546 51.5464 87.4498 50.8049C86.2629 50.0742 85.1976 50.9738 85.2002 52.3827Z" fill="#ECC696"/>
<path id="Vector_98" d="M79.4424 41.499C78.7821 41.4094 77.2805 41.2085 76.3137 39.5508C76.3137 39.5508 76.2286 43.3289 79.4424 41.499Z" fill="#0F264C"/>
<path id="Vector_99" d="M88.2376 108.779C88.2376 108.779 84.2906 144.7 81.8817 158.157C79.2438 172.894 69.0579 221.982 69.0579 221.982H60.4492C60.4492 221.982 66.5665 174.083 67.8327 159.493C69.207 143.657 72.0158 108.779 72.0158 108.779H88.2376Z" fill="#523332"/>
<path id="Vector_100" d="M70.3063 218.811C70.3427 218.811 69.5449 222.116 69.5449 222.116H59.8594L59.9234 219.166L70.3063 218.811Z" fill="#523332"/>
<path id="Vector_101" d="M85.3544 121.579C79.2333 122.789 80.774 145.79 81.973 157.62C83.4286 149.258 85.4114 133.166 86.7492 121.746C86.3321 121.541 85.8688 121.477 85.3544 121.579Z" fill="#422928"/>
<path id="Vector_102" d="M97.1664 108.779C97.1664 108.779 99.1703 143.922 99.2125 158.256C99.256 173.165 95.9335 221.982 95.9335 221.982H87.971C87.971 221.982 85.8276 174.036 84.9082 159.394C83.9056 143.432 80.6406 108.78 80.6406 108.78L97.1664 108.779Z" fill="#523332"/>
<path id="Vector_103" d="M99.0751 104.266L96.8415 104.446C96.0654 104.509 95.5439 105.27 95.7666 106.016L96.6905 109.117C97.0206 110.225 98.3719 110.662 99.2728 109.937C100.159 109.222 101.301 107.497 101.662 105.963L99.0751 104.266Z" fill="#ECC696"/>
<path id="Vector_104" d="M94.0415 216.263C94.0402 216.263 94.0383 216.263 94.0364 216.263C93.9922 216.26 93.9589 216.222 93.9621 216.178C94.8438 202.669 96.8906 169.981 96.856 158.257C96.8208 146.264 95.3959 119.428 94.9602 111.489C94.9577 111.445 94.9916 111.407 95.0357 111.404C95.0748 111.406 95.1176 111.436 95.1202 111.48C95.5559 119.42 96.9808 146.259 97.016 158.257C97.0505 169.986 95.0031 202.678 94.1214 216.189C94.1182 216.231 94.0831 216.263 94.0415 216.263Z" fill="#422928"/>
<path id="Vector_105" d="M97.3357 218.811C97.3722 218.811 97.0139 222.116 97.0139 222.116H87.3277L86.9521 219.166L97.3357 218.811Z" fill="#523332"/>
</g>
</g>
<g id="Group 770625">
<g id="Group_75">
<g id="Group_76">
<g id="Group_77">
<g id="Group_78">
<path id="Vector_106" d="M233.767 164.733C234.448 152.435 225.031 141.914 212.733 141.233C200.436 140.552 189.914 149.969 189.233 162.266C188.552 174.564 197.969 185.085 210.267 185.766C222.564 186.447 233.086 177.03 233.767 164.733Z" fill="#B8D2C3"/>
</g>
</g>
</g>
</g>
<g id="Group_79">
<g id="Group_80">
<g id="Group_81">
<g id="Group_82">
<path id="Vector_107" d="M228.581 163.762C228.634 172.999 221.19 180.53 211.952 180.583C202.715 180.636 195.184 173.192 195.131 163.954C195.078 154.717 202.522 147.186 211.76 147.133C220.997 147.08 228.527 154.524 228.581 163.762Z" fill="#3A8459"/>
</g>
</g>
</g>
</g>
<g id="Group_83">
<path id="Vector_108" d="M215.369 157.191C215.817 157.813 216.088 158.438 216.25 159.115C216.262 159.168 216.393 159.224 216.47 159.225C217.158 159.233 217.846 159.229 218.534 159.23C219.011 159.23 219.144 159.361 219.146 159.832C219.147 160.239 219.15 160.646 219.145 161.053C219.14 161.437 218.986 161.585 218.599 161.586C217.904 161.588 217.208 161.588 216.513 161.586C216.394 161.585 216.307 161.591 216.277 161.745C215.857 163.938 214.503 165.313 212.447 166.038C211.866 166.243 211.251 166.352 210.639 166.508C210.653 166.529 210.679 166.577 210.715 166.616C212.902 168.988 214.955 171.475 216.997 173.971C217.062 174.05 217.132 174.135 217.165 174.229C217.259 174.502 217.036 174.797 216.722 174.8C215.805 174.808 214.888 174.802 213.97 174.804C213.782 174.804 213.659 174.706 213.542 174.57C211.786 172.519 210.031 170.468 208.266 168.426C207.729 167.805 207.163 167.209 206.604 166.608C206.475 166.469 206.411 166.323 206.414 166.132C206.422 165.592 206.415 165.052 206.417 164.512C206.419 164.124 206.582 163.966 206.977 163.963C207.636 163.96 208.295 163.975 208.952 163.952C209.877 163.918 210.776 163.757 211.592 163.285C212.175 162.948 212.605 162.476 212.837 161.836C212.855 161.787 212.871 161.738 212.885 161.688C212.89 161.668 212.886 161.645 212.886 161.587C212.792 161.587 212.699 161.587 212.607 161.587C210.75 161.587 208.893 161.587 207.037 161.587C206.542 161.587 206.417 161.464 206.417 160.975C206.416 160.576 206.416 160.176 206.417 159.777C206.419 159.375 206.563 159.23 206.969 159.23C208.773 159.229 210.578 159.23 212.383 159.23H212.735C212.599 159.037 212.511 158.886 212.398 158.757C211.862 158.145 211.149 157.849 210.373 157.759C209.575 157.667 208.767 157.666 207.962 157.635C207.638 157.622 207.312 157.634 206.986 157.632C206.575 157.63 206.418 157.476 206.417 157.072C206.416 156.517 206.416 155.962 206.417 155.408C206.418 154.972 206.552 154.837 206.987 154.837C209.938 154.836 212.889 154.836 215.841 154.836C216.743 154.836 217.646 154.835 218.548 154.837C218.978 154.837 219.116 154.978 219.116 155.412C219.117 155.819 219.117 156.226 219.116 156.633C219.115 157.046 218.971 157.19 218.551 157.19C217.589 157.192 216.628 157.191 215.666 157.191C215.587 157.191 215.508 157.191 215.369 157.191Z" fill="white"/>
</g>
</g>
</g>
</g>
<defs>
<clipPath id="clip0_2330_18209">
<rect width="238" height="234" fill="white" transform="translate(0.5)"/>
</clipPath>
</defs>
</svg>
