<svg width="239" height="234" viewBox="0 0 239 234" fill="none" xmlns="http://www.w3.org/2000/svg">
<path d="M20.3199 179.741C26.3086 177.032 33.4014 179.663 36.1622 185.617C38.9229 191.57 37.8318 207.308 33.933 209.1C30.0344 210.893 17.2353 201.38 14.4746 195.426C11.7143 189.472 14.3312 182.45 20.3199 179.741ZM22.6037 184.667C19.3511 186.138 17.93 189.952 19.429 193.185C20.9286 196.418 24.7807 197.847 28.033 196.376C31.2856 194.905 32.7067 191.091 31.2077 187.858C29.7086 184.624 25.8565 183.196 22.6037 184.667Z" fill="#FF8D46"/>
<path opacity="0.2" d="M20.5316 180.176C26.2863 177.573 33.0878 180.096 35.7406 185.816C35.7804 185.901 35.8169 185.997 35.8552 186.088C33.0839 180.634 26.4584 178.276 20.8314 180.822C15.2042 183.366 12.6832 189.86 15.0545 195.495C15.0103 195.407 14.9606 195.318 14.9207 195.232C12.2679 189.512 14.7773 182.779 20.5316 180.176ZM15.0547 195.496C15.2314 195.844 15.444 196.207 15.6888 196.581C15.4434 196.207 15.231 195.844 15.0547 195.496ZM15.6888 196.581C15.8112 196.768 15.9416 196.958 16.0796 197.15C15.941 196.957 15.8112 196.768 15.6888 196.581ZM16.0795 197.15C16.2174 197.342 16.3631 197.536 16.5154 197.732C16.3627 197.536 16.2174 197.342 16.0795 197.15ZM16.5154 197.732C16.8187 198.122 17.1501 198.521 17.5041 198.922C17.149 198.52 16.8193 198.123 16.5154 197.732ZM35.8548 186.088C36.0063 186.448 36.1456 186.843 36.2722 187.27C36.1457 186.843 36.0067 186.448 35.8548 186.088ZM36.2722 187.27C36.3357 187.484 36.3955 187.705 36.4528 187.934C36.3958 187.706 36.3356 187.484 36.2722 187.27ZM36.614 188.639C36.7148 189.122 36.8039 189.629 36.8799 190.157C36.8036 189.63 36.7151 189.122 36.614 188.639ZM31.7961 187.993C31.8515 188.098 31.9112 188.198 31.9615 188.306C33.571 191.777 32.0398 195.884 28.5487 197.463C25.0575 199.042 20.9085 197.503 19.2991 194.033C19.2488 193.925 19.2108 193.814 19.1669 193.705C20.878 196.946 24.8682 198.346 28.2492 196.817C31.63 195.289 33.1633 191.39 31.7961 187.993ZM36.8811 190.168C36.9186 190.43 36.9544 190.696 36.9854 190.966C36.9544 190.696 36.9191 190.43 36.8811 190.168ZM36.986 190.971C37.017 191.239 37.0453 191.509 37.0702 191.783C37.045 191.51 37.0172 191.238 36.986 190.971ZM18.0961 199.573C18.2628 199.751 18.4332 199.93 18.6079 200.109C18.4326 199.93 18.263 199.751 18.0961 199.573ZM37.0777 191.866C37.1 192.118 37.1201 192.371 37.1371 192.627C37.1196 192.371 37.1 192.118 37.0777 191.866ZM18.7601 200.263C18.9119 200.416 19.0649 200.569 19.2218 200.723C19.0649 200.569 18.9123 200.416 18.7601 200.263ZM37.1457 192.774C37.1609 193.015 37.1754 193.256 37.1862 193.499C37.1754 193.256 37.1612 193.014 37.1457 192.774ZM19.3807 200.876C19.5431 201.033 19.7071 201.188 19.8741 201.345C19.7068 201.189 19.5431 201.033 19.3807 200.876ZM37.1887 193.565C37.2132 194.13 37.2263 194.703 37.2269 195.279C37.2262 194.702 37.2132 194.13 37.1887 193.565ZM37.2272 195.364C37.2271 195.937 37.2164 196.513 37.1931 197.086C37.2164 196.513 37.227 195.937 37.2272 195.364ZM21.2716 202.591C21.7131 202.967 22.1639 203.338 22.6207 203.697C22.1635 203.338 21.7132 202.968 21.2716 202.591Z" fill="url(#paint0_linear_2330_18419)"/>
<path d="M222.066 86.7179L208.106 174.28C207.847 175.9 206.313 177.214 204.678 177.214H160.797C159.162 177.214 158.047 175.901 158.305 174.28L172.266 86.7179C172.524 85.0973 174.059 83.7832 175.693 83.7832H189.099C189.662 83.7832 190.106 84.1357 190.208 84.6622L190.217 84.7102C190.413 85.73 190.783 86.66 191.873 86.66H202.478C203.567 86.66 204.234 85.73 204.756 84.7102L204.78 84.6622C205.049 84.136 205.606 83.7832 206.168 83.7832H219.574C221.209 83.7832 222.325 85.0973 222.066 86.7179Z" fill="#C5C5C5"/>
<path d="M223.066 83.796L207.77 179.744C207.457 181.71 205.833 183.305 204.142 183.305H158.774C157.084 183.305 155.968 181.711 156.281 179.744L171.577 83.796C171.89 81.8296 173.514 80.2351 175.204 80.2351H189.065C189.646 80.2351 190.13 78.3135 190.22 78.9524L190.194 81.3599C190.368 82.5973 190.758 81.3764 191.885 81.3764H197.367H202.849C203.976 81.3764 204.657 82.5973 205.225 81.3599L205.287 78.9524C205.58 78.3139 206.131 80.2351 206.712 80.2351H220.573C222.263 80.2351 223.379 81.8296 223.066 83.796Z" fill="#F1F1F1"/>
<path d="M183.204 121.277C180.215 117.776 181.292 112.185 185.61 108.789C189.928 105.394 195.853 105.479 198.842 108.98C201.832 112.48 200.755 118.071 196.437 121.467C192.118 124.863 186.194 124.778 183.204 121.277Z" fill="#3A8459"/>
<path d="M186.548 115.684L189.718 118.401L196.367 112.111" stroke="white" stroke-width="2.63331" stroke-miterlimit="2.3366" stroke-linecap="round" stroke-linejoin="round"/>
<path d="M215.943 80.8957C218.673 81.2364 220.591 83.8465 220.218 86.7139L206.689 179.127C206.316 181.995 203.791 184.051 201.061 183.71L163.558 179.03C160.828 178.689 158.91 176.079 159.283 173.211L171.577 85.7218C171.95 82.8544 174.475 80.7987 177.206 81.1394L215.943 80.8957ZM216.295 78.1877L177.558 78.4315C173.399 77.9125 169.567 81.0323 168.999 85.3998L156.704 172.889C156.136 177.257 159.047 181.218 163.206 181.737L200.709 186.417C204.867 186.936 208.699 183.816 209.267 179.449L222.796 87.0354C223.365 82.6682 220.454 78.7067 216.295 78.1877Z" fill="#2E2E2E"/>
<path d="M205.673 80.1563L185.285 80.1758L185.279 82.512C185.276 83.5474 186.125 84.3858 187.176 84.3848L203.759 84.369C204.809 84.368 205.664 83.5279 205.667 82.4926L205.673 80.1563Z" fill="#2E2E2E"/>
<path d="M176.979 128.546C177.53 128.588 177.923 128.737 178.158 128.994C178.394 129.249 178.496 129.584 178.464 129.999C178.45 130.186 178.408 130.363 178.339 130.53C178.269 130.695 178.165 130.839 178.027 130.962C177.89 131.084 177.713 131.177 177.495 131.238C177.277 131.298 177.012 131.316 176.7 131.293L176.312 131.263L176.196 132.782L175.291 132.714L175.615 128.443L176.979 128.546ZM176.876 129.285L176.464 129.254L176.368 130.521L176.666 130.544C176.835 130.557 176.984 130.546 177.112 130.51C177.24 130.475 177.342 130.412 177.417 130.322C177.493 130.232 177.536 130.111 177.547 129.961C177.563 129.751 177.517 129.591 177.407 129.481C177.298 129.369 177.121 129.303 176.876 129.285ZM181.662 133.197L181.43 132.157L179.873 132.039L179.486 133.032L178.51 132.958L180.343 128.784L181.45 128.868L182.638 133.271L181.662 133.197ZM181.271 131.381L181.037 130.364C181.022 130.296 181.002 130.21 180.977 130.104C180.954 129.996 180.93 129.888 180.905 129.778C180.882 129.667 180.864 129.57 180.85 129.489C180.825 129.567 180.79 129.665 180.746 129.781C180.704 129.895 180.663 130.004 180.624 130.107C180.585 130.209 180.557 130.283 180.54 130.326L180.158 131.296L181.271 131.381ZM184.698 130.9L185.722 129.209L186.698 129.283L185.083 131.784L184.957 133.447L184.058 133.378L184.181 131.745L182.965 129L183.946 129.074L184.698 130.9ZM188.72 133.732L187.946 130.303L187.919 130.301C187.917 130.381 187.914 130.502 187.91 130.665C187.907 130.825 187.903 130.996 187.897 131.178C187.891 131.36 187.883 131.524 187.872 131.67L187.721 133.656L186.912 133.595L187.236 129.324L188.468 129.417L189.232 132.76L189.249 132.761L190.569 129.576L191.802 129.67L191.478 133.941L190.634 133.877L190.787 131.855C190.797 131.721 190.811 131.566 190.828 131.391C190.847 131.216 190.866 131.05 190.886 130.893C190.906 130.734 190.921 130.615 190.931 130.535L190.905 130.533L189.55 133.795L188.72 133.732ZM195.015 134.209L192.556 134.023L192.88 129.752L195.339 129.938L195.283 130.68L193.729 130.562L193.658 131.5L195.104 131.61L195.048 132.352L193.602 132.242L193.518 133.343L195.072 133.461L195.015 134.209ZM199.698 134.564L198.547 134.477L196.934 131.105L196.908 131.103C196.906 131.238 196.902 131.374 196.898 131.511C196.893 131.647 196.889 131.784 196.884 131.921C196.88 132.056 196.875 132.192 196.871 132.328L196.719 134.338L195.909 134.277L196.233 130.006L197.375 130.092L198.988 133.432L199.008 133.433C199.015 133.301 199.02 133.169 199.024 133.038C199.028 132.907 199.032 132.776 199.036 132.645C199.042 132.514 199.048 132.384 199.054 132.253L199.207 130.231L200.022 130.293L199.698 134.564ZM202.424 134.771L201.518 134.702L201.785 131.185L200.625 131.097L200.682 130.343L203.907 130.588L203.85 131.341L202.691 131.253L202.424 134.771Z" fill="black"/>
<path d="M190.597 168.093C184.786 162.596 175.97 159.884 165.751 168.025C155.532 176.166 140.537 212.326 125.009 217.08C109.48 221.834 78.2224 210.959 69.0722 213.366C65.6658 211.821 45.1738 203.475 35.5895 205.644V204.137C40.2579 202.632 67.8187 204.275 80.1927 206.859C85.7228 208.014 103.903 212.712 112.72 203.279C117.663 197.989 129.985 182.02 141.807 169.867C153.628 157.715 182.181 157.159 190.597 168.093Z" fill="#C5C5C5"/>
<path d="M190.597 168.082C184.786 162.585 175.97 158.366 165.751 166.508C155.532 174.649 140.537 210.809 125.009 215.563C109.48 220.316 78.2224 209.442 69.0722 211.848C65.6658 210.303 45.1738 201.958 35.5895 204.127C47.2949 200.337 66.8181 202.549 80.1927 205.342C85.7228 206.497 103.903 211.195 112.72 201.761C117.663 196.472 129.959 180.478 141.807 168.35C155.448 154.385 182.181 157.148 190.597 168.082Z" fill="#F1F1F1"/>
<path d="M169.507 159.607C170.573 159.605 171.697 159.661 172.89 159.78C172.89 159.78 164.672 159.223 159.264 163.835C159.05 164.017 158.846 164.2 158.636 164.382L156.774 163.554C160.545 161.034 164.361 159.62 169.507 159.607ZM151.374 167.818L154.087 168.618C151.579 171.157 148.698 174.477 144.645 179.693L142.136 178.708C146.091 173.736 149.67 169.377 151.374 167.818ZM138.154 183.737L140.809 184.733C139.882 185.971 138.97 187.184 137.929 188.6C134.263 193.585 131.114 197.715 128.191 201.074L125.742 199.659C125.96 199.392 126.195 199.112 126.394 198.859C129.214 195.272 133.787 189.328 138.154 183.737ZM65.2701 205.569C69.0902 205.559 73.5567 206.921 81.5159 208.26C84.0378 208.684 86.1183 209.055 88.2037 209.42L90.8075 210.847C80.6503 209.073 68.7321 205.931 62.9084 207.367C61.2788 206.716 59.3661 206.327 57.607 206.001C59.6677 205.444 62.9778 205.574 65.2701 205.569ZM118.767 206.319L121.6 207.564C117.61 210.745 113.621 212.419 108.748 212.787C106.428 212.963 103.48 212.739 100.214 212.324L98.103 210.904C102.1 211.305 105.622 211.262 109.569 210.434C113.19 209.676 116.214 208.13 118.767 206.319Z" fill="white"/>
<path opacity="0.55" d="M109.895 204.088C118.142 209.312 126.452 210.54 133.51 210.1C130.712 212.735 127.871 214.69 125.011 215.566C119.367 217.294 111.641 216.947 103.658 215.934C97.4163 211.762 87.1688 207.871 78.5028 205.031C79.0583 205.139 79.6576 205.232 80.1948 205.344C85.1886 206.387 100.48 210.285 109.895 204.088Z" fill="#D9D9D9"/>
<path d="M112.778 66.295C112.778 66.295 108.315 67.7094 103.929 70.9806C99.5419 74.2524 93.0543 83.6997 89.7744 84.2302C86.4945 84.7608 76.4171 86.6863 74.2573 88.7746C72.097 90.8628 70.7762 96.8923 73.7374 97.6276C76.699 98.3631 94.3188 95.206 97.6611 94.5308C101.003 93.8556 108.808 84.9078 108.808 84.9078L112.778 66.295Z" fill="#403C46"/>
<path d="M117.416 111.499C117.416 111.499 92.6133 107.848 87.1785 109.252C81.7437 110.657 73.0141 152.12 74.3314 154.523C75.6492 156.926 79.7379 157.891 82.6714 157.28C85.6048 156.668 95.8962 133.496 97.4361 130.151C98.9759 126.806 117.701 128.045 117.701 128.045L117.416 111.499Z" fill="#35313A"/>
<path d="M102.601 170.785C98.5562 182.778 104.242 194.873 118.221 196.897C128.93 198.447 140.049 189.523 143.006 177.298C145.964 165.075 139.662 154.031 128.931 152.631C118.2 151.231 106.624 158.858 102.601 170.785Z" fill="#3C3C3E"/>
<path d="M135.511 158.61C142.829 162.247 144.602 173.336 139.472 183.377C134.342 193.418 124.252 198.61 116.935 194.973C109.617 191.335 107.844 180.247 112.974 170.205C118.104 160.164 128.194 154.973 135.511 158.61Z" fill="#616064"/>
<path d="M136.031 162.943C141.715 165.864 142.958 174.605 138.808 182.468C134.657 190.33 126.684 194.337 121 191.416C115.315 188.495 114.072 179.753 118.223 171.891C122.373 164.028 130.346 160.022 136.031 162.943Z" fill="#9A9999"/>
<path d="M134.833 165.222C139.605 167.674 140.649 175.013 137.164 181.613C133.679 188.214 126.986 191.577 122.214 189.125C117.442 186.673 116.398 179.335 119.883 172.734C123.367 166.133 130.061 162.77 134.833 165.222Z" fill="#767677"/>
<path d="M134.026 167.572C138.629 169.938 139.636 177.016 136.275 183.383C132.914 189.75 126.458 192.993 121.855 190.628C117.252 188.263 116.245 181.184 119.606 174.818C122.967 168.451 129.424 165.207 134.026 167.572Z" fill="#9A9999"/>
<path d="M30.1122 157.442C26.2901 169.505 31.513 180.377 45.528 182.147C56.2644 183.503 67.2157 174.379 69.9457 162.106C72.6762 149.833 66.1704 138.906 55.415 137.701C44.6604 136.496 33.9129 145.446 30.1122 157.442Z" fill="#3C3C3E"/>
<path d="M62.1265 143.567C69.5109 147.071 71.4902 158.125 66.5474 168.257C61.6046 178.388 51.6115 183.761 44.2271 180.257C36.8427 176.753 34.8634 165.699 39.8061 155.567C44.7489 145.436 54.7421 140.063 62.1265 143.567Z" fill="#616064"/>
<path d="M62.7033 147.873C68.4416 150.691 69.8473 159.408 65.843 167.344C61.8387 175.279 53.9408 179.428 48.2026 176.611C42.4643 173.794 41.0586 165.077 45.0629 157.141C49.0672 149.205 56.9651 145.056 62.7033 147.873Z" fill="#9A9999"/>
<path d="M61.5534 150.18C66.3707 152.545 67.5507 159.863 64.189 166.526C60.8273 173.188 54.197 176.671 49.3797 174.306C44.5624 171.941 43.3824 164.623 46.7441 157.96C50.1058 151.298 56.7361 147.815 61.5534 150.18Z" fill="#767677"/>
<path d="M58.7863 150.44C53.3042 149.825 47.2228 155.008 45.2036 162.015C43.1845 169.023 45.9914 175.201 51.4737 175.815C56.9559 176.43 63.0373 171.247 65.0564 164.24C67.0759 157.233 64.2687 151.054 58.7863 150.44Z" fill="#9A9999"/>
<path d="M143.417 144.625C143.417 144.625 146.225 131.924 140.768 128.965C135.311 126.007 107.69 119.362 104.499 120.09C101.307 120.817 98.1392 127.245 97.8436 129.448C97.548 131.651 143.417 144.625 143.417 144.625Z" fill="#616064"/>
<path d="M105.007 120.043C106.582 120.346 107.055 121.979 107.931 122.764C109.091 123.803 136.054 128.903 140.043 130.948C141.881 131.89 143.217 134.561 144.127 137.168C144.214 140.998 143.42 144.627 143.42 144.627C143.42 144.627 97.5507 131.653 97.846 129.449C98.1416 127.245 101.309 120.818 104.5 120.09C104.628 120.062 104.806 120.049 105.007 120.043Z" fill="#4D4D4F"/>
<path d="M79.0374 160.912C79.0374 160.912 88.4162 159.768 93.0079 153.987C97.6 148.207 99.0016 141.619 97.1428 137.611C95.2841 133.604 96.7224 126.989 99.3154 127.491C101.908 127.993 139.266 135.668 143.194 141.209C146.237 145.5 143.277 148.918 145.324 153.87C147.37 158.823 150.776 166.505 148.987 174.39C147.197 182.274 144.864 184.915 139.425 184.076C133.986 183.238 84.863 173.443 81.0705 171.808C77.2789 170.173 75.5931 163.635 79.0374 160.912Z" fill="#D5D5D5"/>
<path d="M97.6415 128.343C99.1639 128.502 102.327 129.01 103.272 130.522C104.531 132.539 102.332 134.908 103.467 139.231C104.602 143.553 106.379 144.72 104.445 151.314C102.51 157.907 97.5091 165.775 90.1054 167.377C82.7017 168.978 77.4279 163.593 77.4279 163.593L77.4876 163.09C77.782 162.229 78.2753 161.453 79.0223 160.862C79.0223 160.862 88.3863 159.72 92.9717 153.947C97.5571 148.175 98.9572 141.595 97.1012 137.593C95.719 134.612 96.1636 130.193 97.5493 128.335C97.5994 128.341 97.584 128.337 97.638 128.343L97.6415 128.343Z" fill="black" fill-opacity="0.2"/>
<path d="M72.9839 105.408C77.0551 102.834 81.2817 101.616 89.3339 105.487C97.386 109.357 99.4368 113.961 99.1696 118.586C98.9024 123.212 89.4282 146.681 88.2781 154.24C87.1281 161.799 87.9488 168.481 89.4764 171.182C91.0041 173.883 77.2006 172.426 67.4183 165.178C57.636 157.93 55.1352 141.153 57.6058 133.415C60.0754 125.678 67.2959 109.524 72.9839 105.408Z" fill="#D5D5D5"/>
<path d="M117.836 148.987C111.728 152.13 109.684 156.111 110.996 159.166C112.307 162.221 115.531 161.321 123.713 156.107C121.282 158.286 117.058 165.634 118.094 169.416C119.13 173.198 136.716 179.567 143.896 178.315C146.217 177.91 147.694 176.946 148.643 175.832C146.894 182.554 144.532 184.864 139.453 184.082C136.702 183.658 122.787 180.944 109.204 178.152C104.73 175.285 102.741 171.531 103.328 165.819C104.072 158.573 107.856 152.745 117.836 148.987Z" fill="black" fill-opacity="0.2"/>
<path opacity="0.2" d="M77.7243 167.915C78.3128 168.182 78.9269 168.435 79.5633 168.666C84.7233 170.542 122.639 178.865 134.275 181.287C139.674 182.411 143.515 182.349 146.099 181.967C144.557 183.927 142.502 184.533 139.499 184.069C134.054 183.226 84.8747 173.377 81.0778 171.733C79.5482 171.07 78.3705 169.604 77.7234 167.915L77.7243 167.915Z" fill="black"/>
<path opacity="0.2" d="M58.8211 129.913C60.1474 132.774 62.4527 135.749 66.4711 136.708C74.9318 138.727 81.7116 134.968 81.5757 142.645C81.4526 149.584 76.4682 162.67 84.8217 172.259C80.2165 171.652 73.1403 169.405 67.4196 165.168C57.6288 157.915 55.1256 141.129 57.5983 133.387C57.9244 132.364 58.3432 131.182 58.8211 129.913Z" fill="black"/>
<path d="M77.1599 105.112C81.4866 103.773 86.1364 104.878 88.1309 108.97C90.1258 113.063 75.7203 132.597 70.0639 132.731C64.408 132.865 70.2339 107.257 77.1599 105.112Z" fill="#C6C5C5"/>
<path opacity="0.2" d="M57.2007 134.882C59.5238 135.058 62.1136 135.4 64.5452 136.048C65.1369 136.321 65.7718 136.549 66.4599 136.713C66.6129 136.749 66.7637 136.779 66.9154 136.812C70.4191 138.151 73.1913 140.314 73.6264 143.81C74.8059 153.283 70.936 162.207 74.1248 169.067C71.8299 168.027 69.5249 166.732 67.4073 165.163C58.2079 158.348 55.4464 143.115 57.2007 134.882Z" fill="black"/>
<path opacity="0.29" d="M145.776 156.867C145.776 156.867 142.41 151.491 133.559 148.999C124.709 146.507 118.392 149.237 114.708 152.563C111.024 155.888 114.536 158.358 116.717 157.561C118.898 156.764 124.448 151.92 128.313 151.85C134.394 151.74 137.442 150.735 145.776 156.867Z" fill="white" fill-opacity="0.2"/>
<path opacity="0.29" d="M142.591 144.828C142.064 142.094 141.251 141.21 137.629 139.365C134.008 137.52 111.207 131.112 108.145 131.587C105.082 132.061 106.692 136.084 109.024 135.571C111.356 135.059 139.217 138.649 142.591 144.828Z" fill="white" fill-opacity="0.2"/>
<path opacity="0.2" d="M127.05 136.43C127.05 136.43 112.638 132.21 110.092 132.691C107.547 133.172 109.377 134.77 111.71 134.818C114.042 134.865 122.852 135.774 127.05 136.43Z" fill="white"/>
<path d="M63.3085 153.937C63.3085 153.937 59.7104 162.899 58.1314 164.497C56.5518 166.095 54.8677 167.387 53.9233 164.936C52.9788 162.484 55.0303 160.382 55.948 159.003C56.8658 157.624 59.8377 151.053 59.8377 151.053C59.8377 151.053 63.4811 150.413 63.3085 153.937Z" fill="#545356"/>
<path d="M60.7573 137.7C67.316 142.253 68.449 144.329 70.6703 149.845C72.8917 155.36 71.4915 163.751 69.4097 167.665C67.3279 171.578 66.2331 170.369 65.0667 167.09C63.9004 163.809 60.4384 155.932 53.8057 157.151C47.1729 158.371 43.4188 161.368 37.7592 160.655C32.0997 159.941 29.1287 159.237 29.4388 155.344C29.749 151.452 32.2755 146.779 37.8123 141.687C43.3488 136.596 52.7502 134.215 60.7573 137.7Z" fill="#D5D5D5"/>
<path d="M61.8869 149.827C68.7337 154.289 68.4068 161.969 68.2375 165.079C68.148 166.72 69.1059 166.705 70.0335 166.334C69.8393 166.816 69.6382 167.269 69.4265 167.667C67.3438 171.583 66.2479 170.374 65.0805 167.091C63.9136 163.808 60.4504 155.924 53.8146 157.144C47.1788 158.365 43.4233 161.363 37.7611 160.649C32.0989 159.935 29.1259 159.23 29.4357 155.334C29.501 154.512 29.673 153.653 29.9437 152.764C30.1965 155.447 31.6558 157.037 34.1528 157.769C40.5795 159.652 44.1128 153.813 49.1303 151.03C53.2529 148.743 58.3741 147.538 61.8869 149.827Z" fill="black" fill-opacity="0.2"/>
<path opacity="0.29" d="M61.5053 141.252C56.265 139.396 50.3037 139.038 44.4945 143.351C38.6852 147.663 35.5866 152.883 36.9661 153.775C38.346 154.668 40.4902 150.626 46.4916 146.387C52.4924 142.149 57.7277 142.067 60.2685 142.818C62.8099 143.568 63.455 142.115 61.5053 141.252Z" fill="white" fill-opacity="0.2"/>
<path d="M109.264 162.15C109.264 162.15 109.385 166.701 109.713 169.029C110.042 171.358 110.173 173.398 107.305 174.709C104.437 176.02 98.8232 174.218 97.1344 173.005C95.4456 171.791 94.5084 169.305 96.373 167.827C98.2375 166.349 100.641 162.08 100.785 160.634C105.021 161.663 109.264 162.15 109.264 162.15Z" fill="#2C2C2D"/>
<path d="M135.082 115.331C135.082 115.331 134.632 126.683 130.604 132.206C126.576 137.728 119.936 134.195 117.79 133.829C115.644 133.464 112.629 161.31 109.982 162.897C107.336 164.485 101.454 163.059 100.177 160.462C98.9006 157.864 101.471 131.374 102.204 127.294C104.608 113.907 114.793 113.903 114.793 113.903L135.082 115.331Z" fill="#403C46"/>
<path d="M131.863 67.1848C131.863 67.1848 140.606 70.0614 142.358 73.7399C144.109 77.4184 140.184 97.6222 138.66 103.41C137.137 109.198 135.494 116.141 133.334 116.962C131.173 117.782 107.11 113.845 103.888 110.567C100.666 107.289 104.928 85.7215 105.127 81.2675C105.327 76.814 106.808 70.893 110.175 67.8729C113.542 64.8537 121.833 63.8839 131.863 67.1848Z" fill="#FF8D46"/>
<path d="M97.9106 95.154C97.9106 95.154 93.4477 90.4407 88.1204 89.4292C82.793 88.4181 80.4607 89.1675 77.9991 90.8345C76.1599 92.0804 75.7853 93.1738 72.1635 92.7253C68.5419 92.2762 63.6207 90.0788 62.9249 92.0951C62.2586 94.026 63.6311 94.9786 65.8646 95.5813C68.0982 96.184 74.5579 98.1961 76.6014 100.205C78.6771 102.245 85.4202 104.177 87.6793 104.472C89.9384 104.766 97.3908 105.302 100.991 106.324C108.97 108.588 115.357 112.105 117.396 111.237C119.435 110.37 119.104 108.486 117.737 107.544C116.371 106.602 107.172 103.495 103.924 102.01C100.675 100.526 100.906 98.953 97.9106 95.154Z" fill="#AAAAAA"/>
<path d="M85.3068 89.5589C87.3625 89.8142 89.4416 90.6329 91.5674 91.8176C95.8186 94.1869 94.9078 100.233 97.1423 101.515C99.3772 102.798 114.625 109.076 116.316 108.268C116.853 108.01 117.525 107.927 118.192 107.92C119.164 108.922 119.211 110.476 117.414 111.241C115.375 112.109 108.989 108.592 101.009 106.327C97.4091 105.304 89.9558 104.77 87.6971 104.475C85.4379 104.181 78.6949 102.248 76.6196 100.208C74.5761 98.1984 68.1159 96.187 65.8823 95.5843C63.6488 94.9815 62.2758 94.0287 62.9422 92.097C63.0194 91.8733 63.1554 91.7085 63.3287 91.5801C65.4367 91.6487 69.5831 92.9361 72.3335 93.3637C75.686 93.8849 75.1272 92.8295 79.1886 90.6851C81.2191 89.6129 83.2515 89.3038 85.3068 89.5589Z" fill="black" fill-opacity="0.2"/>
<path d="M76.8215 94.4763C78.1593 92.7663 81.4875 91.0133 85.1073 92.1368C88.7265 93.2607 89.5427 94.6038 90.1839 97.7663C90.8246 100.929 89.4268 103.287 86.895 103.113C84.3633 102.938 81.2305 102.562 78.7403 100.776C76.2501 98.9909 74.7244 96.6741 76.8215 94.4763Z" fill="#FFC700"/>
<path d="M65.1903 91.2666C67.0043 91.446 69.5532 92.2943 71.733 92.6294C70.909 93.2098 69.9873 94.4289 70.2506 96.9532C68.4698 96.3118 66.7906 95.8047 65.856 95.5531C63.6236 94.9514 62.2512 94.0001 62.9173 92.0716C63.1783 91.3168 64.0332 91.1525 65.1903 91.2666Z" fill="#545356"/>
<path d="M105.601 102.715C109.586 104.317 116.587 106.737 117.767 107.549C119.133 108.49 119.463 110.373 117.425 111.239C115.669 111.986 110.68 109.484 104.234 107.33C103.595 104.687 104.828 103.3 105.601 102.715Z" fill="#545356"/>
<path d="M95.773 168.428C95.9911 168.931 96.3417 169.505 96.9149 170.036C98.3773 171.389 100.042 169.892 101.826 170.298C103.611 170.704 104.29 171.712 106.639 172.989C108.307 173.895 109.348 171.387 109.814 169.851C110.025 171.832 109.82 173.549 107.298 174.703C104.428 176.017 98.8077 174.211 97.118 172.996C95.6452 171.936 94.7454 169.911 95.773 168.428Z" fill="#171719"/>
<path d="M107.514 165.339C107.514 165.339 105.428 162.781 101.756 163.716C101.302 164.156 101.177 164.653 101.177 164.653C101.177 164.653 103.899 163.751 106.839 166.182C106.701 165.805 107.514 165.339 107.514 165.339Z" fill="#171719"/>
<path d="M106.695 166.806C106.695 166.806 104.609 164.248 100.937 165.182C100.483 165.623 100.358 166.12 100.358 166.12C100.358 166.12 103.08 165.218 106.019 167.648C105.881 167.272 106.695 166.806 106.695 166.806Z" fill="#171719"/>
<path d="M131.3 67.1596C131.3 67.1596 129.978 65.8512 130.756 64.2872C131.533 62.7232 131.879 61.55 130.533 60.9095C129.187 60.269 124.699 58.9809 122.699 60.0904C120.699 61.2004 121.196 61.7804 121.279 62.7914C121.361 63.8023 119.871 65.9648 119.871 65.9648C119.871 65.9648 125.999 69.0709 131.3 67.1596Z" fill="#F9BEA7"/>
<path d="M121.721 104.356C121.721 104.356 124.178 107.222 122.756 109.986C121.976 111.282 118.669 110.589 118.669 110.589C118.669 110.589 119.209 108.173 117.63 107.529C116.051 106.886 115.024 107.186 114.456 108.073C113.889 108.96 114.276 109.905 113.728 110.768C113.18 111.632 111.744 111.463 111.511 110.18C109.864 110.938 109.34 110.562 108.919 109.747C107.262 110.135 107.002 109.795 106.649 109.107C106.296 108.418 105.603 109.611 105.046 108.372C104.49 107.132 106.212 103.864 107.454 102.152C108.696 100.44 110.725 100.733 112.284 101.4C113.844 102.068 117.257 103.62 118.524 103.856C119.793 104.091 121.721 104.356 121.721 104.356Z" fill="#F9BEA7"/>
<path d="M77.0756 91.3241C75.4689 89.5671 71.5367 88.536 68.9664 88.4217C66.3872 88.3069 64.482 91.1822 63.6614 92.7554C62.8403 94.3285 63.4525 96.1281 64.1139 96.3376C64.7753 96.547 65.5341 96.4482 65.5341 96.4482C65.5341 96.4482 65.6912 97.3909 66.6829 97.4255C67.6746 97.4601 68.1359 97.2424 68.1359 97.2424C68.1359 97.2424 68.3271 98.2358 69.4258 98.3406C70.5245 98.4458 71.7563 97.5713 71.7563 97.5713C71.7563 97.5713 69.9295 96.6025 70.9747 94.46C71.9134 92.5355 75.3984 93.5894 77.0756 91.3241Z" fill="#F9BEA7"/>
<path d="M125.11 59.6648C127.177 59.7278 129.588 60.4747 130.514 60.9152C131.431 61.352 131.562 62.0369 131.306 62.9242C130.363 63.4068 128.86 64.0715 127.032 64.4861C124.683 65.0192 122.359 64.7512 120.931 64.0633C121.138 63.5954 121.285 63.1336 121.258 62.7981C121.175 61.7867 120.676 61.2061 122.677 60.0962C123.303 59.7488 124.171 59.6362 125.11 59.6648Z" fill="black" fill-opacity="0.2491"/>
<path d="M119.51 45.2263C119.51 45.2263 118.941 51.4874 118.748 54.4191C118.554 57.3506 118.884 59.0088 119.867 61.1012C122.042 65.7263 127.712 63.7493 129.732 62.422C131.752 61.0948 133.116 57.205 133.517 55.6278C133.918 54.0506 135.843 47.8192 135.729 46.0109C135.616 44.2026 134.094 40.8488 127.495 40.1161C121.289 40.8338 121.162 42.6447 119.51 45.2263Z" fill="#F9BEA7"/>
<path d="M119.641 49.5708C120.378 48.7931 121.551 48.5156 122.351 49.1009C123.151 49.6862 122.12 49.8839 121.459 49.6541C120.798 49.4239 119.641 49.5708 119.641 49.5708Z" fill="#424046"/>
<path d="M125.902 58.916C125.902 58.916 123.338 59.4877 121.589 58.3461C122.537 59.601 124.729 59.8608 125.902 58.916Z" fill="#A46957"/>
<path d="M129.585 50.6222C128.926 49.7838 127.785 49.4056 126.932 49.9191C126.078 50.4327 127.086 50.7193 127.766 50.5473C128.446 50.3759 129.585 50.6222 129.585 50.6222Z" fill="#424046"/>
<path d="M126.789 51.6353C126.461 51.6209 126.182 51.8568 126.168 52.1624C126.153 52.4674 126.407 52.7268 126.736 52.7407C127.064 52.7551 127.342 52.5193 127.356 52.2136C127.371 51.9086 127.117 51.6496 126.789 51.6353Z" fill="#424046"/>
<path d="M121.455 50.7739C121.127 50.7596 120.848 50.9954 120.834 51.3011C120.819 51.6061 121.073 51.8655 121.402 51.8794C121.73 51.8938 122.008 51.6579 122.022 51.3523C122.037 51.0467 121.782 50.7882 121.455 50.7739Z" fill="#424046"/>
<path d="M122.705 54.3354C122.705 54.3354 122.102 54.9284 121.897 55.5592C121.692 56.1901 122.287 56.511 122.737 56.9037C121.34 56.7121 121.218 55.9192 121.306 55.5091C121.395 55.0985 122.705 54.3354 122.705 54.3354Z" fill="#A46957"/>
<path d="M129.834 46.5707C128.388 46.0883 124.88 46.9442 121.609 46.3243C118.338 45.7048 115.778 44.8524 115.415 45.6971C115.052 46.5418 119.101 47.4542 122.075 47.6579C125.048 47.8611 131.486 47.2557 129.834 46.5707Z" fill="white" fill-opacity="0.1883"/>
<path d="M140.926 72.0263C144.225 74.5149 147.29 85.2766 148.203 89.1873C149.117 93.0981 152.767 105.804 150.917 108.725C149.067 111.647 130.863 113.317 127.379 112.756C123.896 112.195 119.76 110.293 120.342 105.857C120.924 101.421 127.357 101.044 131.643 99.8355C135.928 98.627 138.075 99.8354 136.765 95.3995C135.453 90.9634 134.682 82.2036 136.172 76.8391C137.664 71.4748 140.926 72.0263 140.926 72.0263Z" fill="#403C46"/>
<path d="M119.441 63.9783C119.354 64.5868 119.337 65.2043 119.367 65.8191C119.4 66.4344 119.48 67.0488 119.612 67.6551C119.744 68.2618 119.928 68.8604 120.168 69.4416C120.288 69.7318 120.415 70.0215 120.568 70.3003C120.709 70.584 120.88 70.8546 121.051 71.1252C121.231 71.3908 121.416 71.6538 121.622 71.9044C121.823 72.158 122.042 72.4 122.27 72.6347L122.619 72.9806L122.991 73.307C123.237 73.5268 123.51 73.7197 123.775 73.9199C124.054 74.104 124.324 74.3012 124.62 74.4639C124.766 74.5478 124.908 74.6362 125.056 74.7167L125.508 74.9463C125.805 75.108 126.125 75.2268 126.433 75.3677C126.747 75.4978 127.07 75.6083 127.388 75.7293L127.27 75.601C127.455 76.6879 127.581 77.7933 127.678 78.8951C127.776 79.9983 127.837 81.104 127.868 82.2097C127.923 84.4214 127.892 86.635 127.711 88.8399C127.661 89.3906 127.617 89.9424 127.55 90.4914C127.492 91.0413 127.413 91.5892 127.343 92.138C127.264 92.6859 127.187 93.2342 127.09 93.7796C126.997 94.3256 126.895 94.8707 126.78 95.4129C126.675 95.9579 126.536 96.4956 126.414 97.0371C126.269 97.5739 126.151 98.117 125.99 98.6504L125.761 99.4536L125.508 100.251C125.344 100.784 125.148 101.308 124.97 101.838C125.176 101.317 125.41 100.804 125.593 100.276L125.881 99.4859L126.145 98.6899C126.327 98.1601 126.475 97.6219 126.635 97.0858C126.772 96.5452 126.926 96.0078 127.045 95.4628C127.175 94.9205 127.292 94.3754 127.4 93.8284C127.512 93.2827 127.605 92.7331 127.698 92.1842C127.787 91.6343 127.865 91.0831 127.929 90.5303C128.002 89.9785 128.051 89.424 128.106 88.8707C128.206 87.7623 128.268 86.6515 128.303 85.5393C128.321 84.9832 128.327 84.427 128.33 83.8706C128.327 83.3144 128.314 82.758 128.295 82.2018C128.254 81.0895 128.183 79.9776 128.076 78.8686C127.966 77.7584 127.835 76.6537 127.631 75.5469L127.614 75.4556L127.512 75.4186C127.2 75.3049 126.882 75.202 126.573 75.0794C126.271 74.946 125.955 74.835 125.664 74.6818L125.219 74.4644C125.073 74.388 124.933 74.3041 124.789 74.2245C124.498 74.0703 124.232 73.8825 123.956 73.7068C123.695 73.5153 123.425 73.3314 123.182 73.1206L122.813 72.8078L122.466 72.4754C122.24 72.2497 122.021 72.0168 121.821 71.7718C121.614 71.53 121.429 71.2755 121.248 71.0177C121.076 70.7555 120.905 70.4921 120.756 70.2174C120.599 69.9474 120.465 69.6659 120.338 69.3831C120.085 68.816 119.886 68.2294 119.737 67.6318C119.588 67.0346 119.49 66.4265 119.439 65.8153C119.388 65.205 119.378 64.5893 119.441 63.9783Z" fill="white"/>
<path d="M125.139 76.6809C125.166 76.2982 125.533 76.0106 125.958 76.0381C126.383 76.0656 126.707 76.3982 126.68 76.7805C126.653 77.1632 126.286 77.4508 125.86 77.4233C125.435 77.3958 125.112 77.0635 125.139 76.6809Z" fill="white"/>
<path d="M125.427 83.9116C125.454 83.529 125.821 83.241 126.247 83.2685C126.672 83.296 126.996 83.6287 126.969 84.0113C126.942 84.3936 126.575 84.6816 126.149 84.6541C125.724 84.6266 125.4 84.294 125.427 83.9116Z" fill="white"/>
<path d="M124.879 91.9872C124.906 91.6048 125.273 91.3172 125.699 91.3447C126.125 91.3722 126.448 91.7045 126.421 92.0868C126.394 92.4695 126.027 92.7571 125.601 92.7296C125.176 92.7021 124.853 92.3695 124.879 91.9872Z" fill="white"/>
<path d="M121.583 44.1823C122.005 43.7625 122.001 43.0583 121.732 42.5274C121.463 41.9965 120.984 41.6011 120.512 41.2309C120.04 40.8606 119.549 40.4866 119.24 39.9769C118.627 38.9659 118.876 37.6539 119.426 36.6153C120.476 34.6304 122.52 33.255 124.732 32.7019C126.943 32.1489 129.305 32.3584 131.503 32.9865C136.074 34.2927 139.432 37.3986 141.714 41.5017C142.089 42.1752 142.16 43.0176 141.91 43.741C141.712 44.3149 141.188 44.7115 140.675 45.0477C139.094 46.0831 137.511 46.6127 135.687 47.1438L135.163 49.6229L121.583 44.1823Z" fill="#FF8D46"/>
<path d="M121.045 36.076C121.039 36.0785 121.059 36.1606 121.115 36.3015C121.17 36.4426 121.265 36.6407 121.402 36.8724C121.539 37.104 121.721 37.3673 121.932 37.6506C122.142 37.9344 122.379 38.2403 122.602 38.5778C122.825 38.9154 123.009 39.2573 123.124 39.5897C123.239 39.9216 123.289 40.2405 123.293 40.5093C123.3 41.0528 123.133 41.3697 123.155 41.3751C123.16 41.3773 123.206 41.3033 123.258 41.1558C123.31 41.0088 123.362 40.7855 123.369 40.5069C123.374 40.2288 123.331 39.8978 123.217 39.5535C123.104 39.2086 122.918 38.857 122.692 38.5145C122.465 38.1721 122.224 37.8669 122.011 37.5873C121.797 37.3081 121.61 37.0527 121.467 36.8293C121.177 36.3832 121.061 36.0683 121.045 36.076Z" fill="#263238"/>
<path d="M124.131 34.5636C124.112 34.5776 124.357 34.8947 124.647 35.4719C124.718 35.6166 124.795 35.7756 124.863 35.9536C124.94 36.1274 125 36.3224 125.069 36.5251C125.193 36.9359 125.298 37.3983 125.356 37.8939C125.409 38.3906 125.409 38.8691 125.381 39.3034C125.359 39.5202 125.343 39.7269 125.307 39.918C125.281 40.1106 125.241 40.2875 125.204 40.4489C125.052 41.0941 124.884 41.4747 124.906 41.4825C124.912 41.4853 124.955 41.3913 125.028 41.2185C125.066 41.1324 125.109 41.026 125.147 40.8986C125.188 40.7718 125.241 40.629 125.277 40.4655C125.32 40.3031 125.364 40.125 125.394 39.9304C125.435 39.7371 125.454 39.528 125.479 39.3082C125.513 38.868 125.516 38.3817 125.462 37.8775C125.403 37.3746 125.293 36.9054 125.163 36.4908C125.091 36.2861 125.026 36.0898 124.945 35.9153C124.873 35.7365 124.79 35.5778 124.714 35.4338C124.643 35.2869 124.56 35.165 124.493 35.0547C124.427 34.9435 124.363 34.8535 124.307 34.7817C124.199 34.6366 124.137 34.5588 124.131 34.5636Z" fill="#263238"/>
<path d="M129.487 35.4289C129.479 35.4273 129.449 35.5187 129.4 35.6848C129.352 35.8512 129.281 36.0911 129.189 36.3863C129.006 36.9767 128.726 37.7848 128.353 38.6518C127.978 39.5186 127.583 40.2775 127.279 40.8169C127.127 41.0866 127.002 41.3036 126.914 41.4528C126.826 41.6025 126.781 41.6872 126.787 41.6913C126.793 41.6952 126.85 41.6182 126.948 41.4751C127.047 41.3324 127.183 41.1207 127.343 40.8546C127.665 40.323 128.073 39.5649 128.45 38.6931C128.825 37.821 129.096 37.0042 129.261 36.4064C129.344 36.1074 129.405 35.8638 129.441 35.6943C129.477 35.5248 129.494 35.4305 129.487 35.4289Z" fill="#263238"/>
<path d="M133.119 35.6615C133.112 35.6593 133.065 35.7711 132.988 35.9748C132.911 36.1789 132.796 36.4729 132.649 36.8337C132.356 37.5555 131.915 38.5392 131.348 39.5841C130.779 40.6284 130.192 41.5324 129.745 42.1702C129.522 42.4893 129.338 42.7453 129.208 42.9204C129.079 43.0962 129.011 43.1958 129.016 43.2005C129.022 43.2051 129.101 43.1144 129.24 42.946C129.38 42.7785 129.574 42.529 129.805 42.2143C130.269 41.5856 130.868 40.6838 131.44 39.6345C132.011 38.5847 132.442 37.5913 132.719 36.8604C132.857 36.4949 132.962 36.1963 133.026 35.9878C133.093 35.7798 133.126 35.6639 133.119 35.6615Z" fill="#263238"/>
<path d="M138.343 40.2931C138.34 40.2864 138.238 40.3349 138.057 40.4282C137.875 40.5209 137.616 40.6626 137.298 40.8446C136.664 41.2079 135.804 41.7432 134.892 42.3946C133.981 43.0472 133.193 43.6912 132.64 44.1773C132.363 44.4201 132.143 44.6213 131.995 44.7647C131.846 44.9075 131.767 44.989 131.771 44.9947C131.776 45.0001 131.865 44.9292 132.022 44.7963C132.194 44.651 132.418 44.4625 132.687 44.2359C133.251 43.7659 134.043 43.1337 134.951 42.4833C135.86 41.8339 136.711 41.2904 137.334 40.911C137.634 40.7308 137.884 40.5807 138.076 40.4652C138.251 40.3609 138.347 40.2998 138.343 40.2931Z" fill="#263238"/>
<path d="M133.98 53.3681C135.53 50.9255 135.676 48.9672 135.736 46.9342C135.736 46.9342 130.668 41.4695 125.224 41.2403C125.224 41.2403 121.851 41.0068 120.943 42.5711C120.943 42.5711 120.01 44.222 119.702 45.378C119.554 45.9328 119.431 46.8204 119.431 46.8204L119.16 48.2629C119.16 48.2629 120.177 46.0971 124.862 47.204C129.547 48.3108 133.98 53.3681 133.98 53.3681Z" fill="#FF8D46"/>
<mask id="mask0_2330_18419" style="mask-type:luminance" maskUnits="userSpaceOnUse" x="110" y="75" width="7" height="8">
<path d="M116.462 76.3232L112.175 75.2168L110.392 81.843L114.679 82.9494L116.462 76.3232Z" fill="white"/>
</mask>
<g mask="url(#mask0_2330_18419)">
<path d="M114.373 81.4671C114.116 81.6439 113.805 81.7241 113.496 81.6934C113.187 81.6626 112.9 81.5229 112.687 81.2994C112.565 81.1716 112.475 81.0168 112.425 80.8475C112.154 79.7697 113.082 78.9867 113.976 79.2174C114.155 79.2633 114.321 79.3477 114.463 79.4645C114.604 79.5814 114.718 79.728 114.796 79.8939L115.621 79.503C115.472 79.1863 115.247 78.9112 114.966 78.7013C114.685 78.4914 114.356 78.3531 114.008 78.2983C113.843 78.2694 113.672 78.2831 113.513 78.3381C113.254 78.4193 112.988 78.4752 112.719 78.505C112.663 78.5159 112.61 78.5381 112.563 78.5703C112.308 78.7186 112.087 78.9161 111.91 79.1511C111.734 79.3862 111.607 79.6538 111.537 79.9379C111.467 80.222 111.455 80.5167 111.502 80.8044C111.55 81.0921 111.655 81.3668 111.812 81.6119C111.97 81.8571 112.175 82.0677 112.417 82.2311C112.659 82.3944 112.932 82.5072 113.22 82.5626C113.508 82.618 113.804 82.6148 114.092 82.5534C114.379 82.4919 114.652 82.3734 114.893 82.2049L114.373 81.4671Z" fill="#272727"/>
<path d="M114.705 76.1876C114.705 76.1876 114.716 76.3251 114.711 76.5461C114.711 76.5461 114.366 75.4458 113.369 75.6504C113.17 75.7029 112.986 75.8011 112.831 75.9371C112.677 76.0731 112.556 76.243 112.479 76.4332C112.643 76.49 112.796 76.5723 112.933 76.6772C112.933 76.6772 112.205 76.5209 111.873 76.826C111.764 76.916 111.683 77.0347 111.64 77.1682C111.597 77.3016 111.593 77.4443 111.628 77.5793C111.656 77.7132 111.781 78.1713 112.645 77.8721C112.628 77.6965 112.571 77.5275 112.477 77.3784C112.477 77.3784 112.682 77.4258 112.818 77.9868C112.853 78.1265 112.958 78.2647 113.124 78.2146C113.327 78.1526 113.482 78.0503 113.839 78.0598C113.941 78.0651 114.042 78.0784 114.142 78.0994C114.248 78.1421 114.363 78.1581 114.477 78.1462C114.497 78.1415 114.515 78.1306 114.528 78.115C114.54 78.0995 114.548 78.0802 114.549 78.0602C114.532 77.8949 114.496 77.3931 114.796 77.0434C114.722 77.2273 114.692 77.4251 114.706 77.6217C114.706 77.6217 115.263 77.663 115.492 77.2567C115.721 76.8504 115.687 76.0506 114.705 76.1876ZM114.192 77.6956C114.139 77.6805 113.773 77.6137 113.162 77.7828C113.162 77.7828 113.758 77.4546 114.221 77.5891C114.541 77.6821 114.311 77.7291 114.192 77.6962" fill="#272727"/>
</g>
<defs>
<linearGradient id="paint0_linear_2330_18419" x1="15.9821" y1="170.375" x2="19.5102" y2="194.794" gradientUnits="userSpaceOnUse">
<stop stop-color="#FEFEFE"/>
<stop offset="1" stop-color="#FEFEFE" stop-opacity="0"/>
</linearGradient>
</defs>
</svg>
