<svg width="90" height="91" viewBox="0 0 90 91" fill="none" xmlns="http://www.w3.org/2000/svg">
<g id="Group">
<g id="Group_2">
<g id="Group_3">
<path id="Vector" fill-rule="evenodd" clip-rule="evenodd" d="M4.97602 91.0007L55.6702 91.0005C57.0884 91.0005 58.3088 90.387 59.1545 89.2484C60.0002 88.11 60.2356 86.7644 59.826 85.4067C56.0044 72.7339 44.2419 63.5039 30.3231 63.5039C16.4041 63.5039 4.64159 72.7339 0.820205 85.4067C0.410649 86.7647 0.64604 88.11 1.49174 89.2484C2.33744 90.387 3.55781 91.0007 4.97602 91.0007Z" fill="#ECA976"/>
</g>
<g id="Group_4">
<path id="Vector_2" fill-rule="evenodd" clip-rule="evenodd" d="M55.6693 91.0005C57.0872 91.0005 58.3078 90.3868 59.1535 89.2481C59.9992 88.1095 60.2346 86.7642 59.8251 85.4065C56.0032 72.7337 44.241 63.5039 30.3222 63.5039C28.8486 63.5039 27.3996 63.6085 25.9814 63.8083C37.9605 65.4978 47.7262 74.075 51.1437 85.4065C51.5532 86.7642 51.3178 88.1095 50.4721 89.2481C49.6264 90.3868 48.406 91.0005 46.9878 91.0005H55.6693Z" fill="#ED8739"/>
</g>
<g id="Group_5">
<path id="Vector_3" d="M30.3239 60.9524C38.9278 60.9524 45.9026 53.9776 45.9026 45.3737C45.9026 36.7698 38.9278 29.7949 30.3239 29.7949C21.72 29.7949 14.7451 36.7698 14.7451 45.3737C14.7451 53.9776 21.72 60.9524 30.3239 60.9524Z" fill="#F6DCCD"/>
</g>
<g id="Group_6">
<path id="Vector_4" fill-rule="evenodd" clip-rule="evenodd" d="M30.3218 29.7949C38.9254 29.7949 45.9003 36.7698 45.9003 45.3737C45.9003 53.9775 38.9254 60.9524 30.3218 60.9524C29.5852 60.9524 28.8607 60.9 28.1514 60.8012C35.7275 59.7447 41.5596 53.2408 41.5596 45.3737C41.5596 37.5065 35.7275 31.0026 28.1514 29.9462C28.8607 29.8474 29.5852 29.7949 30.3218 29.7949Z" fill="#F1CBBC"/>
</g>
</g>
<g id="Group_7">
<g id="Group_8">
<path id="Vector_5" fill-rule="evenodd" clip-rule="evenodd" d="M51.7619 51.9534C51.7619 50.8757 52.6356 50.002 53.7133 50.002C54.791 50.002 55.6648 50.8757 55.6648 51.9534V55.8823C55.6648 56.96 54.791 57.8338 53.7133 57.8338H31.4495C30.3718 57.8338 29.498 56.96 29.498 55.8823C29.498 54.8047 30.3718 53.9309 31.4495 53.9309H51.7621V51.9534H51.7619Z" fill="#A79BA7"/>
</g>
<g id="Group_9">
<path id="Vector_6" fill-rule="evenodd" clip-rule="evenodd" d="M8.88528 46.4235C8.88528 47.5012 8.01153 48.375 6.93385 48.375C5.85617 48.375 4.98242 47.5012 4.98242 46.4235C4.98242 39.4259 7.81907 33.0904 12.4049 28.5045C16.9908 23.9187 23.3263 21.082 30.3239 21.082C37.3215 21.082 43.6568 23.9187 48.2429 28.5045C52.8288 33.0906 55.6654 39.4259 55.6654 46.4235C55.6654 47.5012 54.7917 48.375 53.714 48.375C52.6363 48.375 51.7626 47.5012 51.7626 46.4235C51.7626 40.5034 49.363 35.1435 45.4833 31.2641C41.6039 27.3847 36.2441 24.9851 30.3239 24.9851C24.4038 24.9851 19.0439 27.3847 15.1645 31.2641C11.2848 35.1435 8.88528 40.5031 8.88528 46.4235Z" fill="#837683"/>
</g>
<g id="Group_10">
<path id="Vector_7" fill-rule="evenodd" clip-rule="evenodd" d="M6.93152 39.1914C9.17176 39.1914 11.0046 41.0243 11.0046 43.2645V47.8814C11.0046 50.1216 9.17176 51.9542 6.93176 51.9542C4.69152 51.9542 2.8584 50.1214 2.8584 47.8814V43.2645C2.85864 41.024 4.69152 39.1914 6.93152 39.1914Z" fill="#FFE177"/>
</g>
<g id="Group_11">
<path id="Vector_8" fill-rule="evenodd" clip-rule="evenodd" d="M53.7137 39.1914C55.954 39.1914 57.7869 41.0243 57.7869 43.2645V47.8814C57.7869 50.1216 55.954 51.9542 53.714 51.9542H53.7137C51.4735 51.9542 49.6406 50.1214 49.6406 47.8814V43.2645C49.6406 41.024 51.4735 39.1914 53.7137 39.1914Z" fill="#FFE177"/>
</g>
</g>
<g id="Group_12">
<g id="Group_13">
<g id="Group_14">
<path id="Vector_9" fill-rule="evenodd" clip-rule="evenodd" d="M89.899 23.4715C89.899 16.949 89.899 10.4265 89.899 3.90415C89.899 1.75383 88.1451 0 85.9948 0C76.4631 0 66.9312 0 57.3993 0C55.2489 0 53.4951 1.75383 53.4951 3.90415V23.4715C53.4951 25.622 55.2489 27.3757 57.3993 27.3757H60.703V34.2593C60.703 34.4386 60.8063 34.5915 60.9726 34.6586C61.1389 34.7256 61.3195 34.6869 61.4438 34.5576L68.3428 27.3758H85.9948C88.1451 27.3757 89.899 25.6218 89.899 23.4715Z" fill="#FFE177"/>
</g>
<g id="Group_15">
<path id="Vector_10" fill-rule="evenodd" clip-rule="evenodd" d="M89.8991 23.4715C89.8991 16.949 89.8991 10.4265 89.8991 3.90415C89.8991 1.75383 88.1453 0 85.995 0H84.5615C86.7119 0 88.4658 1.75383 88.4658 3.90415V23.4715C88.4658 25.622 86.712 27.3757 84.5615 27.3757H85.995C88.1453 27.3757 89.8991 25.6218 89.8991 23.4715ZM60.7031 33.8364V34.2593C60.7031 34.4386 60.8065 34.5915 60.9728 34.6586C61.139 34.7256 61.3197 34.6869 61.4439 34.5576L68.343 27.3758H66.9095L60.7031 33.8364Z" fill="#FFD064"/>
</g>
</g>
<g id="Group_16">
<path id="Vector_11" fill-rule="evenodd" clip-rule="evenodd" d="M61.8382 14.8331C61.2049 14.8331 60.6914 14.3197 60.6914 13.6864C60.6914 13.0531 61.2049 12.5396 61.8382 12.5396H81.5558C82.1891 12.5396 82.7025 13.0531 82.7025 13.6864C82.7025 14.3197 82.1891 14.8331 81.5558 14.8331H61.8382ZM61.8382 7.80134C61.2049 7.80134 60.6914 7.28787 60.6914 6.65457C60.6914 6.02128 61.2049 5.50781 61.8382 5.50781H81.5558C82.1891 5.50781 82.7025 6.02128 82.7025 6.65457C82.7025 7.28787 82.1891 7.80134 81.5558 7.80134H61.8382ZM61.8382 21.865C61.2049 21.865 60.6914 21.3515 60.6914 20.7182C60.6914 20.0849 61.2049 19.5714 61.8382 19.5714H81.5558C82.1891 19.5714 82.7025 20.0849 82.7025 20.7182C82.7025 21.3515 82.1891 21.865 81.5558 21.865H61.8382Z" fill="#989898"/>
</g>
</g>
</g>
</svg>
