<svg width="239" height="234" viewBox="0 0 239 234" fill="none" xmlns="http://www.w3.org/2000/svg">
<g id="Frame 1000001143" clip-path="url(#clip0_2330_17822)">
<g id="Group 770669">
<g id="Background_Complete">
<g id="Group">
<g id="Shadow_1_">
<path id="_x3C_Path_x3E__166_" d="M127.693 230.432C190.164 230.432 240.807 227.475 240.807 223.826C240.807 220.178 190.164 217.221 127.693 217.221C65.2226 217.221 14.5801 220.178 14.5801 223.826C14.5801 227.475 65.2226 230.432 127.693 230.432Z" fill="#F5F5F5"/>
</g>
<path id="Vector" d="M241.184 233.764H190.486V233.933H241.184V233.764Z" fill="#EBEBEB"/>
<path id="Vector_2" d="M192.441 227.473H187.369V227.642H192.441V227.473Z" fill="#EBEBEB"/>
<path id="Vector_3" d="M153.324 233.09H142.128V233.259H153.324V233.09Z" fill="#EBEBEB"/>
<path id="Vector_4" d="M21.915 228.609H9.31543V228.779H21.915V228.609Z" fill="#EBEBEB"/>
<path id="Vector_5" d="M43.4074 228.609H27.1133V228.779H43.4074V228.609Z" fill="#EBEBEB"/>
<path id="Vector_6" d="M127.181 231.387H99.8564V231.556H127.181V231.387Z" fill="#EBEBEB"/>
<path id="Vector_7" d="M116.982 192.641H4.33C2.49407 192.641 1 190.906 1 188.774V4.8674C1 2.73518 2.49407 1 4.33 1H116.982C118.818 1 120.312 2.73518 120.312 4.8674V188.774C120.312 190.906 118.818 192.641 116.982 192.641ZM4.33 1.17006C2.57399 1.17006 1.14585 2.82868 1.14585 4.86808V188.774C1.14585 190.814 2.57399 192.472 4.33 192.472H116.982C118.738 192.472 120.166 190.814 120.166 188.774V4.8674C120.166 2.82868 118.738 1.16939 116.982 1.16939L4.33 1.17006Z" fill="#EBEBEB"/>
<path id="Vector_8" d="M243.167 192.641H130.515C128.679 192.641 127.186 190.906 127.186 188.774V4.8674C127.186 2.73518 128.68 1 130.515 1H243.167C245.003 1 246.497 2.73518 246.497 4.8674V188.774C246.497 190.906 245.003 192.641 243.167 192.641ZM130.515 1.17006C128.76 1.17006 127.331 2.82868 127.331 4.86808V188.774C127.331 190.814 128.76 192.472 130.515 192.472H243.167C244.923 192.472 246.351 190.814 246.351 188.774V4.8674C246.351 2.82868 244.923 1.16939 243.167 1.16939L130.515 1.17006Z" fill="#EBEBEB"/>
</g>
<g id="Group_2">
<g id="Group_3">
<g id="Group_4">
<path id="Vector_9" d="M129.592 155.533H91.8842L88.2899 93.086C88.2006 91.5389 89.3826 90.2852 90.9298 90.2852H123.035C124.582 90.2852 125.908 91.5395 125.997 93.086L129.592 155.533Z" fill="#E0E0E0"/>
<path id="Vector_10" d="M133.394 155.533H95.6869L92.0926 93.086C92.0034 91.5389 93.1853 90.2852 94.7325 90.2852H126.838C128.385 90.2852 129.711 91.5395 129.8 93.086L133.394 155.533Z" fill="#EBEBEB"/>
<path id="Vector_11" d="M122.699 155.532H93.6465V150.545C93.6465 148.998 94.9008 147.744 96.4473 147.744H122.699V155.532H122.699Z" fill="#E0E0E0"/>
<path id="Vector_12" d="M153.124 155.532H114.104V150.545C114.104 148.998 115.359 147.744 116.905 147.744H150.322C151.869 147.744 153.123 148.998 153.123 150.545V155.532H153.124Z" fill="#EBEBEB"/>
</g>
<g id="Group_5">
<path id="Vector_13" d="M94.4664 155.533H91.8809V192.03H94.4664V155.533Z" fill="#E0E0E0"/>
<path id="Vector_14" d="M113.448 155.533H110.862V192.03H113.448V155.533Z" fill="#E0E0E0"/>
<path id="Vector_15" d="M133.563 155.533H130.978V192.03H133.563V155.533Z" fill="#E0E0E0"/>
<path id="Vector_16" d="M152.529 155.533H149.943V192.03H152.529V155.533Z" fill="#E0E0E0"/>
</g>
</g>
<g id="Group_6">
<g id="Group_7">
<path id="Vector_17" d="M89.2583 126.709H31.6582V130.065H89.2583V126.709Z" fill="#E6E6E6"/>
<path id="Vector_18" d="M89.2595 130.062H35.4854V187.968H89.2595V130.062Z" fill="#EBEBEB"/>
<path id="Vector_19" d="M89.2557 187.971L218.917 187.971V130.065H89.2557V187.971Z" fill="#F5F5F5"/>
<path id="Vector_20" d="M35.481 132.549L218.917 132.549V130.065L35.481 130.065V132.549Z" fill="#E0E0E0"/>
<path id="Vector_21" d="M89.2564 130.062L222.744 130.062V126.706L89.2564 126.706V130.062Z" fill="#F0F0F0"/>
<path id="Vector_22" d="M35.4854 187.971V192.03L46.197 187.971H35.4854Z" fill="#EBEBEB"/>
<path id="Vector_23" d="M89.2549 187.971V192.03L99.9671 187.971H89.2549Z" fill="#F5F5F5"/>
<path id="Vector_24" d="M218.922 187.971V192.03L208.21 187.971H218.922Z" fill="#F5F5F5"/>
<path id="Vector_25" d="M89.2517 187.971V192.03L78.54 187.971H89.2517Z" fill="#EBEBEB"/>
<path id="Vector_26" d="M165.144 187.971V192.03L154.433 187.971H165.144Z" fill="#E0E0E0"/>
<path id="Vector_27" d="M165.147 187.971V192.03L175.86 187.971H165.147Z" fill="#E0E0E0"/>
</g>
</g>
<g id="Group_8">
<g id="Group_9">
<g id="Group_10">
<g id="Group_11">
<path id="Vector_28" d="M147.022 14.0508H99.167V74.6005H147.022V14.0508Z" fill="#E6E6E6"/>
<path id="Vector_29" d="M149.944 14.0508H102.089V74.6005H149.944V14.0508Z" fill="#F5F5F5"/>
<path id="Vector_30" d="M144.694 71.8746V16.7773L107.335 16.7773V71.8746H144.694Z" fill="white"/>
<path id="Vector_31" d="M144.694 71.8746V16.7773H142.484V71.8746H144.694Z" fill="#E6E6E6"/>
<path id="Vector_32" d="M147.772 41.3809H104.259V45.0411H147.772V41.3809Z" fill="#F5F5F5"/>
<path id="Vector_33" d="M147.772 29.2148H104.259V32.875H147.772V29.2148Z" fill="#F5F5F5"/>
</g>
</g>
</g>
<g id="Group_12">
<g id="Group_13">
<g id="Group_14">
<path id="Vector_34" d="M211.561 14.0508H163.706V74.6005H211.561V14.0508Z" fill="#E6E6E6"/>
<path id="Vector_35" d="M214.483 14.0508H166.628V74.6005H214.483V14.0508Z" fill="#F5F5F5"/>
<path id="Vector_36" d="M209.233 71.8746V16.7773L171.874 16.7773V71.8746H209.233Z" fill="white"/>
<path id="Vector_37" d="M209.233 71.8746V16.7773H207.023V71.8746H209.233Z" fill="#E6E6E6"/>
<path id="Vector_38" d="M212.311 58.7363H168.798V62.3965H212.311V58.7363Z" fill="#F5F5F5"/>
<path id="Vector_39" d="M212.311 29.2148H168.798V32.875H212.311V29.2148Z" fill="#F5F5F5"/>
</g>
</g>
</g>
<g id="Group_15">
<g id="Group_16">
<g id="Group_17">
<path id="Vector_40" d="M82.5016 14.0508H34.6465V74.6005H82.5016V14.0508Z" fill="#E6E6E6"/>
<path id="Vector_41" d="M85.4234 14.0508H37.5684V74.6005H85.4234V14.0508Z" fill="#F5F5F5"/>
<path id="Vector_42" d="M80.1738 71.8746L80.1738 16.7773L42.8146 16.7773L42.8146 71.8746H80.1738Z" fill="white"/>
<path id="Vector_43" d="M80.1738 71.8746L80.1738 16.7773H77.9634L77.9634 71.8746H80.1738Z" fill="#E6E6E6"/>
<path id="Vector_44" d="M83.2518 63.1426H39.7383V66.8028H83.2518V63.1426Z" fill="#F5F5F5"/>
<path id="Vector_45" d="M83.2518 35.5957H39.7383V39.2559H83.2518V35.5957Z" fill="#F5F5F5"/>
</g>
</g>
</g>
</g>
<g id="Group_18">
<path id="Vector_46" d="M194.466 104.275H185.225C185.225 104.275 186.829 109.278 186.829 112.222C186.829 115.166 179.801 126.705 189.846 126.705C199.89 126.705 192.862 115.165 192.862 112.222C192.862 109.278 194.466 104.275 194.466 104.275Z" fill="#E6E6E6"/>
<path id="Vector_47" d="M160.316 121.893C160.316 124.539 165.53 126.706 171.901 126.706H177.652C184.024 126.706 189.236 124.54 189.236 121.893H160.316Z" fill="#F0F0F0"/>
</g>
<g id="Group_19">
<g id="Group_20">
<path id="Vector_48" d="M61.1807 114.598H51.0273V126.708H61.1807V114.598Z" fill="#E6E6E6"/>
<path id="Vector_49" d="M61.1855 126.707H71.3389V114.597H61.1855V126.707Z" fill="#F5F5F5"/>
</g>
<g id="Group_21">
<path id="Vector_50" d="M72.8484 117.082H64.7783V126.707H72.8484V117.082Z" fill="#E6E6E6"/>
<path id="Vector_51" d="M72.8499 126.709H80.9199V117.084H72.8499V126.709Z" fill="#F5F5F5"/>
</g>
</g>
</g>
</g>
<g id="Group 770667">
<g id="Group_22">
<path id="Vector_52" d="M127.318 213.425H60.021C52.5584 213.425 46.5088 207.376 46.5088 199.913V42.0259C46.5088 34.5633 52.5584 28.5137 60.021 28.5137H127.318C134.781 28.5137 140.83 34.5633 140.83 42.0259V199.913C140.83 207.376 134.781 213.425 127.318 213.425Z" fill="#E9E7E7"/>
<g id="Group_23">
<path id="Vector_53" d="M127.321 33.1407C132.22 33.1407 136.207 37.1269 136.207 42.0264V199.914C136.207 204.813 132.22 208.799 127.321 208.799H60.024C55.1245 208.799 51.1383 204.813 51.1383 199.914V42.0264C51.1383 37.1269 55.1245 33.1407 60.024 33.1407H127.321ZM127.321 28.5137H60.024C52.5613 28.5137 46.5117 34.5633 46.5117 42.0259V199.913C46.5117 207.376 52.5613 213.425 60.024 213.425H127.321C134.783 213.425 140.833 207.376 140.833 199.913V42.0259C140.833 34.5637 134.783 28.5137 127.321 28.5137Z" fill="#060000"/>
<g id="Group_24">
<g id="Group_25">
<path id="Vector_54" d="M120.928 152.387H66.0791C62.7238 152.387 60.0039 149.958 60.0039 146.963V78.4235C60.0039 75.4282 62.7239 73 66.0791 73H120.929C124.284 73 127.004 75.4283 127.004 78.4237V146.963C127.004 149.958 124.284 152.387 120.928 152.387Z" fill="white"/>
<g id="Group_26">
<path id="Vector_55" d="M104.425 117.471H81.9403C80.6707 117.471 79.6416 116.442 79.6416 115.172V92.6874C79.6416 91.4178 80.6707 90.3887 81.9403 90.3887H104.425C105.695 90.3887 106.724 91.4178 106.724 92.6874V115.172C106.724 116.442 105.695 117.471 104.425 117.471Z" fill="#FF8D46"/>
<g id="Group_27">
<g id="Group_28">
<g id="Group_29">
<path id="Vector_56" d="M93.1957 105.249C96.1025 105.249 98.4589 102.893 98.4589 99.9858C98.4589 97.079 96.1025 94.7227 93.1957 94.7227C90.289 94.7227 87.9326 97.079 87.9326 99.9858C87.9326 102.893 90.289 105.249 93.1957 105.249Z" fill="white"/>
</g>
<g id="Group_30">
<path id="Vector_57" d="M100.84 113.139H85.5449V110.88C85.5449 108.453 87.5119 106.486 89.9386 106.486H96.4463C98.873 106.486 100.84 108.453 100.84 110.88V113.139Z" fill="white"/>
</g>
</g>
</g>
</g>
</g>
<g id="Group_31">
<path id="Vector_58" d="M116.886 128.454H70.2789C69.2695 128.454 68.4512 127.636 68.4512 126.627C68.4512 125.617 69.2695 124.799 70.2789 124.799H116.886C117.895 124.799 118.714 125.617 118.714 126.627C118.714 127.636 117.895 128.454 116.886 128.454Z" fill="#FFDFC5"/>
<path id="Vector_59" d="M116.886 134.835H70.2789C69.2695 134.835 68.4512 134.017 68.4512 133.007C68.4512 131.998 69.2695 131.18 70.2789 131.18H116.886C117.895 131.18 118.714 131.998 118.714 133.007C118.714 134.017 117.895 134.835 116.886 134.835Z" fill="#FFDFC5"/>
<path id="Vector_60" d="M108.733 141.214H70.2789C69.2695 141.214 68.4512 140.396 68.4512 139.386C68.4512 138.377 69.2695 137.559 70.2789 137.559H108.733C109.742 137.559 110.56 138.377 110.56 139.386C110.56 140.396 109.742 141.214 108.733 141.214Z" fill="#FFDFC5"/>
</g>
</g>
</g>
<g id="Group_32">
<path id="Vector_61" d="M114.73 28.9805H72.6221V33.8785C72.6221 36.0492 74.3816 37.8087 76.5523 37.8087H110.8C112.97 37.8087 114.73 36.0492 114.73 33.8785V28.9805Z" fill="#060000"/>
</g>
</g>
</g>
</g>
<g id="Group_33">
<g id="Group_34">
<g id="Group_35">
<g id="Group_36">
<g id="Group_37">
<g id="Group_38">
<path id="Vector_62" d="M167.41 216.506L161.929 219.523C161.348 219.843 160.996 220.575 161.176 221.269C161.319 221.818 161.787 222.236 163.006 222.261C165.715 222.315 177.706 220.317 177.706 220.317V222.04L183.309 222.07C183.309 222.07 183.659 213.92 181.965 212.881L167.41 216.506Z" fill="#200902"/>
<path id="Vector_63" d="M174.754 210.512L167.411 216.505C167.411 216.505 168.356 219.216 172.54 217.409C176.725 215.602 181.966 212.88 181.966 212.88L181.202 209.744L174.754 210.512Z" fill="#ECC696"/>
</g>
<path id="Vector_64" d="M181.203 209.744L181.967 187.986L174.689 187.395V212.88L181.203 209.744Z" fill="#ECC696"/>
</g>
<path id="Vector_65" d="M168.245 122.661L171.289 207.389H185.404L186.125 115.816L168.245 122.661Z" fill="#3A2222"/>
</g>
<g id="Group_39">
<path id="Vector_66" d="M169.828 121.175L176.93 162.457C177.791 167.552 183.015 170.659 187.903 168.985C191.499 167.754 193.815 164.256 193.544 160.464L192.185 141.713C191.5 135.349 193.078 127.118 186.125 115.816L169.828 121.175Z" fill="#523332"/>
<g id="Group_40">
<g id="Group_41">
<g id="Group_42">
<path id="Vector_67" d="M207.157 214.427L204.112 219.892C203.789 220.471 203.879 221.279 204.4 221.771C204.812 222.16 205.431 222.267 206.478 221.641C208.803 220.249 217.907 212.195 217.907 212.195L218.821 213.656L223.587 210.709C223.587 210.709 219.56 203.614 217.573 203.633L207.157 214.427Z" fill="#200902"/>
<path id="Vector_68" d="M210.204 205.45L207.159 214.427C207.159 214.427 209.398 216.223 211.986 212.471C214.575 208.72 217.574 203.632 217.574 203.632L215.262 201.379L210.204 205.45Z" fill="#ECC696"/>
</g>
<path id="Vector_69" d="M215.262 201.379L204.368 182.529L197.885 185.889L211.405 207.492L215.262 201.379Z" fill="#ECC696"/>
</g>
<path id="Vector_70" d="M177.986 165.341L204.222 204.468L216.449 196.63L191.092 154.059L177.986 165.341Z" fill="#523332"/>
</g>
</g>
</g>
<g id="Group_43">
<path id="Vector_71" d="M158.415 54.1291C158.415 54.1291 152.585 53.3698 151.824 58.8873C151.258 62.9944 153.148 65.0171 151.667 68.3205C150.186 71.6239 152.965 74.5774 152.965 74.5774C152.965 74.5774 159.872 77.7851 167.375 71.2251L158.415 54.1291Z" fill="#DC761C"/>
<path id="Vector_72" d="M160.68 72.5866L163.842 80.8034L170.461 79.0408L164.348 67.2285L160.68 72.5866Z" fill="#ECC696"/>
<path id="Vector_73" d="M162.192 76.5125L163.548 70.4922L161.082 73.6278L162.192 76.5125Z" fill="black"/>
<path id="Vector_74" d="M157.676 55.3654C157.676 55.3654 153.747 56.1945 153.745 61.1805C153.745 61.1805 153.556 63.0859 153.806 68.2808C153.983 71.9599 155.719 74.5077 159.171 74.1556C160.845 73.9846 162.599 72.9628 164.169 71.6401L166.368 69.3988C171.454 63.1936 166.148 53.8417 158.25 55.2522C158.062 55.2855 157.87 55.3234 157.676 55.3654Z" fill="#ECC696"/>
<path id="Vector_75" d="M154.058 65.3809L152.665 67.8251C152.502 68.0839 152.587 68.4823 152.928 68.504L154.733 68.7388L154.058 65.3809Z" fill="#ECC696"/>
<path id="Vector_76" d="M163.343 63.9288C163.483 62.8003 164.25 54.9499 158.369 55.9634C157.456 56.1205 156.994 54.9056 157.779 54.4152C159.88 53.1032 163.218 52.1983 168.044 54.0566C170.003 54.8113 172.702 57.3942 172.703 59.9313C172.706 65.3781 170.891 68.1399 167.698 70.9437C167.534 71.0878 167.276 71.0389 167.176 70.8448L165.119 66.8699C165.111 66.8556 165.106 66.8422 165.101 66.8269C164.874 66.1055 163.73 64.5878 163.408 64.171C163.355 64.1008 163.332 64.0162 163.343 63.9288Z" fill="#DC761C"/>
<path id="Vector_77" d="M159.407 54.0356C152.011 57.4453 162.834 65.5609 162.834 65.5609L165.88 59.5656C165.88 59.5656 160.642 53.4658 159.407 54.0356Z" fill="#DC761C"/>
<g id="Group_44">
<path id="Vector_78" d="M154.501 60.8265L158.412 62.1524C158.412 62.1524 157.731 60.8944 156.344 60.2206C154.481 59.3153 154.501 60.8265 154.501 60.8265Z" fill="black"/>
<g id="Group_45">
<g id="Group_46">
<path id="Vector_79" d="M155.323 63.498C155.323 63.498 156.638 63.7832 156.684 65.0961C156.73 66.4091 155.3 66.3194 155.3 66.3194C155.3 66.3194 154.065 64.7306 155.323 63.498Z" fill="white"/>
<g id="Clip path group">
<mask id="mask0_2330_17822" style="mask-type:luminance" maskUnits="userSpaceOnUse" x="154" y="63" width="3" height="4">
<g id="XMLID_00000147205090450779586000000011381216814726039487_">
<path id="Vector_80" d="M155.321 63.498C155.321 63.498 156.636 63.7832 156.682 65.0961C156.728 66.4091 155.298 66.3194 155.298 66.3194C155.298 66.3194 154.063 64.7306 155.321 63.498Z" fill="white"/>
</g>
</mask>
<g mask="url(#mask0_2330_17822)">
<path id="Vector_81" d="M155.587 63.1582C155.587 63.1582 156.609 65.0567 155.298 66.3192L154.562 66.249L154.527 64.1564L155.587 63.1582Z" fill="black"/>
</g>
</g>
</g>
<g id="Group_47">
<path id="Vector_82" d="M155.007 63.1686C155.249 63.1853 155.444 63.2393 155.648 63.3188C155.847 63.3992 156.033 63.5129 156.193 63.6548C156.352 63.7962 156.488 63.9635 156.581 64.1502C156.682 64.3323 156.735 64.5319 156.778 64.7269C156.787 64.7681 156.761 64.8087 156.72 64.818C156.682 64.8263 156.645 64.8055 156.632 64.7709L156.63 64.7648C156.563 64.5897 156.49 64.4182 156.379 64.2745C156.277 64.1257 156.143 64.0046 155.997 63.9094C155.851 63.8138 155.689 63.7449 155.52 63.7038C155.356 63.6636 155.165 63.6455 155.02 63.658L155.011 63.6589C154.875 63.6705 154.757 63.5702 154.745 63.4348C154.733 63.2994 154.834 63.1806 154.969 63.1691C154.981 63.1677 154.995 63.1677 155.007 63.1686Z" fill="black"/>
</g>
</g>
<path id="Vector_83" d="M154.045 69.4362C153.578 69.5097 153.543 70.0508 153.97 70.2255C153.97 70.2255 153.405 70.8023 154.263 70.9945C155.121 71.1863 155.925 69.7218 155.925 69.7218C154.878 69.9538 154.661 69.3396 154.045 69.4362Z" fill="#C7181B"/>
</g>
<path id="Vector_84" d="M163.892 67.2618C164.352 70.5527 163.97 74.1874 163.97 74.1874C163.97 74.1874 173.303 77.1867 177.544 66.5667C177.544 66.5667 174.836 65.5218 174.004 63.1936C173.172 60.8653 173.993 52.7649 163.099 53.0052C163.099 53.0052 163.374 63.554 163.892 67.2618Z" fill="#DC761C"/>
<g id="Group_48">
<path id="Vector_85" d="M167.479 65.4947C167.651 66.8728 166.674 68.1298 165.295 68.3017C163.917 68.4736 162.66 67.4962 162.488 66.1177C162.316 64.7396 163.294 63.483 164.672 63.3106C166.05 63.1387 167.307 64.1166 167.479 65.4947Z" fill="#ECC696"/>
<path id="Vector_86" d="M163.894 66.8703C163.894 66.8703 163.992 64.9556 165.57 64.9219" stroke="black" stroke-width="0.5111" stroke-miterlimit="10" stroke-linecap="round" stroke-linejoin="round"/>
</g>
</g>
<g id="Group_49">
<g id="Group_50">
<g id="Group_51">
<path id="Vector_87" d="M180.138 85.3516L195.609 97.8797C197.824 99.7717 197.992 103.137 195.976 105.241C194.133 107.165 191.115 107.334 189.069 105.627L172.279 92.3271L180.138 85.3516Z" fill="#ECC696"/>
<path id="Vector_88" d="M189.42 89.9515C189.42 89.9515 188.759 94.9398 180.066 100.665L168.25 91.8818C164.951 89.4288 164.469 84.6724 167.209 81.6075C169.48 79.0685 173.249 78.5343 176.135 80.3426L189.42 89.9515Z" fill="#467AC9"/>
</g>
<g id="Group_52">
<g id="Group_53">
<path id="Vector_89" d="M189.14 105.808L204.485 125.523L208.249 121.111L196.777 99.2127C194.912 96.6959 191.23 96.462 189.061 98.7237C187.154 100.712 187.189 103.862 189.14 105.808Z" fill="#ECC696"/>
</g>
<g id="Group_54">
<path id="Vector_90" d="M203.588 124.686L203.431 125.674C203.219 126.999 203.322 128.357 203.731 129.636L204.451 131.888C204.622 132.423 205.233 132.676 205.732 132.418C206.154 132.201 206.401 131.749 206.356 131.277L206.122 128.778L211.113 135.842C211.349 136.194 211.84 136.26 212.16 135.981L212.374 135.794C212.626 135.574 212.689 135.207 212.523 134.916L209.336 130.044L213.771 135.134C214.028 135.469 214.521 135.504 214.822 135.207L214.971 135.061C215.224 134.812 215.252 134.413 215.036 134.132L211.369 129.411L214.94 132.383C215.276 132.681 215.802 132.591 216.02 132.198L216.064 132.119C216.214 131.85 216.171 131.515 215.959 131.292L212.47 127.941L214.661 129.25C215.064 129.577 215.669 129.37 215.788 128.866C215.844 128.625 215.771 128.373 215.595 128.201L206.692 119.867L204.873 121.948C204.196 122.722 203.75 123.671 203.588 124.686Z" fill="#ECC696"/>
</g>
</g>
</g>
<path id="Vector_91" d="M168.316 78.7902C168.316 78.7902 162.235 78.201 162.156 89.1851C162.076 100.197 165.551 105.388 168.246 122.66C168.246 122.66 178.558 121.396 186.126 115.816C186.126 115.816 186.596 75.3616 168.316 78.7902Z" fill="#467AC9"/>
<g id="Group_55">
<g id="Group_56">
<path id="Vector_92" d="M167.085 93.5068L152.704 107.272C150.547 109.231 147.187 108.973 145.355 106.708C143.679 104.636 143.893 101.621 145.844 99.8066L161.158 84.8301L167.085 93.5068Z" fill="#ECC696"/>
<g id="Group_57">
<path id="Vector_93" d="M163.165 102.234C163.165 102.234 158.149 102.061 152.992 91.8342L163.105 81.1334C165.929 78.1452 170.709 78.226 173.43 81.308C175.685 83.8614 175.772 87.6676 173.636 90.3212L163.165 102.234Z" fill="#467AC9"/>
<path id="Vector_94" d="M164.555 100.653L171.468 92.7871" stroke="black" stroke-width="0.5111" stroke-miterlimit="10" stroke-linecap="round" stroke-linejoin="round"/>
</g>
</g>
<g id="Group_58">
<g id="Group_59">
<path id="Vector_95" d="M152.451 99.9593L131.96 84.4531L129.27 88.6729L145.463 106.857C147.438 109.18 151.028 109.168 152.987 106.832C154.709 104.778 154.471 101.722 152.451 99.9593Z" fill="#ECC696"/>
</g>
<g id="Group_60">
<path id="Vector_96" d="M134.674 88.7363C133.902 91.333 131.396 91.2291 126.469 89.8482C123.86 89.1171 122.914 87.2685 123.687 84.6722C124.459 82.0759 127.19 80.5966 129.786 81.3688C132.383 82.1411 135.446 86.14 134.674 88.7363Z" fill="#ECC696"/>
<path id="Vector_97" d="M130.691 81.7385L124.43 78.0982C124.018 77.8186 123.439 77.9184 123.154 78.3182C122.907 78.6648 122.962 79.1269 123.285 79.4088L128.146 83.5173L130.691 81.7385Z" fill="#ECC696"/>
</g>
</g>
</g>
</g>
</g>
</g>
</g>
<defs>
<clipPath id="clip0_2330_17822">
<rect width="238" height="234" fill="white" transform="translate(0.5)"/>
</clipPath>
</defs>
</svg>
