<svg width="239" height="234" viewBox="0 0 239 234" fill="none" xmlns="http://www.w3.org/2000/svg">
<g clip-path="url(#clip0_2328_12967)">
<path d="M127.693 230.432C190.164 230.432 240.807 227.475 240.807 223.826C240.807 220.178 190.164 217.221 127.693 217.221C65.2226 217.221 14.5801 220.178 14.5801 223.826C14.5801 227.475 65.2226 230.432 127.693 230.432Z" fill="#F5F5F5"/>
<path d="M241.184 233.764H190.486V233.933H241.184V233.764Z" fill="#EBEBEB"/>
<path d="M192.441 227.473H187.369V227.642H192.441V227.473Z" fill="#EBEBEB"/>
<path d="M153.324 233.09H142.127V233.259H153.324V233.09Z" fill="#EBEBEB"/>
<path d="M21.915 228.609H9.31543V228.779H21.915V228.609Z" fill="#EBEBEB"/>
<path d="M43.4079 228.609H27.1138V228.779H43.4079V228.609Z" fill="#EBEBEB"/>
<path d="M127.181 231.387H99.856V231.556H127.181V231.387Z" fill="#EBEBEB"/>
<path d="M116.982 192.641H4.33C2.49407 192.641 1 190.906 1 188.774V4.8674C1 2.73518 2.49407 1 4.33 1H116.982C118.818 1 120.312 2.73518 120.312 4.8674V188.774C120.312 190.906 118.818 192.641 116.982 192.641ZM4.33 1.17006C2.57399 1.17006 1.14585 2.82868 1.14585 4.86808V188.774C1.14585 190.814 2.57399 192.472 4.33 192.472H116.982C118.738 192.472 120.166 190.814 120.166 188.774V4.8674C120.166 2.82868 118.738 1.16939 116.982 1.16939L4.33 1.17006Z" fill="#EBEBEB"/>
<path d="M243.167 192.641H130.515C128.679 192.641 127.186 190.906 127.186 188.774V4.8674C127.186 2.73518 128.68 1 130.515 1H243.167C245.003 1 246.497 2.73518 246.497 4.8674V188.774C246.497 190.906 245.003 192.641 243.167 192.641ZM130.515 1.17006C128.76 1.17006 127.331 2.82868 127.331 4.86808V188.774C127.331 190.814 128.76 192.472 130.515 192.472H243.167C244.923 192.472 246.351 190.814 246.351 188.774V4.8674C246.351 2.82868 244.923 1.16939 243.167 1.16939L130.515 1.17006Z" fill="#EBEBEB"/>
<path d="M129.592 155.533H91.8837L88.2894 93.086C88.2001 91.5389 89.3821 90.2852 90.9293 90.2852H123.035C124.582 90.2852 125.908 91.5395 125.997 93.086L129.592 155.533Z" fill="#E0E0E0"/>
<path d="M133.394 155.533H95.6864L92.0921 93.086C92.0029 91.5389 93.1848 90.2852 94.732 90.2852H126.837C128.384 90.2852 129.71 91.5395 129.8 93.086L133.394 155.533Z" fill="#EBEBEB"/>
<path d="M122.699 155.532H93.646V150.545C93.646 148.998 94.9003 147.744 96.4469 147.744H122.698V155.532H122.699Z" fill="#E0E0E0"/>
<path d="M153.124 155.532H114.104V150.545C114.104 148.998 115.359 147.744 116.905 147.744H150.322C151.869 147.744 153.123 148.998 153.123 150.545V155.532H153.124Z" fill="#EBEBEB"/>
<path d="M94.466 155.533H91.8804V192.03H94.466V155.533Z" fill="#E0E0E0"/>
<path d="M113.447 155.533H110.862V192.03H113.447V155.533Z" fill="#E0E0E0"/>
<path d="M133.563 155.533H130.978V192.03H133.563V155.533Z" fill="#E0E0E0"/>
<path d="M152.528 155.533H149.942V192.03H152.528V155.533Z" fill="#E0E0E0"/>
<path d="M89.2578 126.709H31.6577V130.065H89.2578V126.709Z" fill="#E6E6E6"/>
<path d="M89.259 130.062H35.4849V187.968H89.259V130.062Z" fill="#EBEBEB"/>
<path d="M89.2552 187.971L218.917 187.971V130.065H89.2552V187.971Z" fill="#F5F5F5"/>
<path d="M35.4805 132.549L218.917 132.549V130.065L35.4805 130.065V132.549Z" fill="#E0E0E0"/>
<path d="M89.2559 130.062L222.744 130.062V126.706L89.2559 126.706V130.062Z" fill="#F0F0F0"/>
<path d="M35.4849 187.971V192.03L46.1965 187.971H35.4849Z" fill="#EBEBEB"/>
<path d="M89.2544 187.971V192.03L99.9666 187.971H89.2544Z" fill="#F5F5F5"/>
<path d="M218.922 187.971V192.03L208.21 187.971H218.922Z" fill="#F5F5F5"/>
<path d="M89.2512 187.971V192.03L78.5396 187.971H89.2512Z" fill="#EBEBEB"/>
<path d="M165.144 187.971V192.03L154.432 187.971H165.144Z" fill="#E0E0E0"/>
<path d="M165.147 187.971V192.03L175.859 187.971H165.147Z" fill="#E0E0E0"/>
<path d="M147.022 14.0508H99.167V74.6005H147.022V14.0508Z" fill="#E6E6E6"/>
<path d="M149.943 14.0508H102.088V74.6005H149.943V14.0508Z" fill="#F5F5F5"/>
<path d="M144.694 71.8746V16.7773L107.335 16.7773V71.8746H144.694Z" fill="white"/>
<path d="M144.694 71.8746V16.7773H142.484V71.8746H144.694Z" fill="#E6E6E6"/>
<path d="M147.773 41.3809H104.259V45.0411H147.773V41.3809Z" fill="#F5F5F5"/>
<path d="M147.773 29.2148H104.259V32.875H147.773V29.2148Z" fill="#F5F5F5"/>
<path d="M211.561 14.0508H163.706V74.6005H211.561V14.0508Z" fill="#E6E6E6"/>
<path d="M214.482 14.0508H166.627V74.6005H214.482V14.0508Z" fill="#F5F5F5"/>
<path d="M209.233 71.8746V16.7773L171.874 16.7773V71.8746H209.233Z" fill="white"/>
<path d="M209.233 71.8746V16.7773H207.022V71.8746H209.233Z" fill="#E6E6E6"/>
<path d="M212.311 58.7363H168.798V62.3965H212.311V58.7363Z" fill="#F5F5F5"/>
<path d="M212.311 29.2148H168.798V32.875H212.311V29.2148Z" fill="#F5F5F5"/>
<path d="M82.5016 14.0508H34.6465V74.6005H82.5016V14.0508Z" fill="#E6E6E6"/>
<path d="M85.4229 14.0508H37.5679V74.6005H85.4229V14.0508Z" fill="#F5F5F5"/>
<path d="M80.1738 71.8746L80.1738 16.7773L42.8146 16.7773L42.8146 71.8746H80.1738Z" fill="white"/>
<path d="M80.1738 71.8746L80.1738 16.7773H77.9634L77.9634 71.8746H80.1738Z" fill="#E6E6E6"/>
<path d="M83.2522 63.1426H39.7388V66.8028H83.2522V63.1426Z" fill="#F5F5F5"/>
<path d="M83.2522 35.5957H39.7388V39.2559H83.2522V35.5957Z" fill="#F5F5F5"/>
<path d="M194.467 104.275H185.226C185.226 104.275 186.83 109.278 186.83 112.222C186.83 115.166 179.801 126.705 189.846 126.705C199.89 126.705 192.862 115.165 192.862 112.222C192.863 109.278 194.467 104.275 194.467 104.275Z" fill="#E6E6E6"/>
<path d="M160.316 121.893C160.316 124.539 165.53 126.706 171.901 126.706H177.652C184.024 126.706 189.236 124.54 189.236 121.893H160.316Z" fill="#F0F0F0"/>
<path d="M61.1802 114.598H51.0269V126.708H61.1802V114.598Z" fill="#E6E6E6"/>
<path d="M61.185 126.707H71.3384V114.597H61.185V126.707Z" fill="#F5F5F5"/>
<path d="M72.8479 117.082H64.7778V126.707H72.8479V117.082Z" fill="#E6E6E6"/>
<path d="M72.8494 126.709H80.9194V117.084H72.8494V126.709Z" fill="#F5F5F5"/>
<path d="M127.318 213.425H60.021C52.5584 213.425 46.5088 207.376 46.5088 199.913V42.0259C46.5088 34.5633 52.5584 28.5137 60.021 28.5137H127.318C134.781 28.5137 140.83 34.5633 140.83 42.0259V199.913C140.83 207.376 134.781 213.425 127.318 213.425Z" fill="#ECEAEA"/>
<path d="M127.321 33.1407C132.22 33.1407 136.207 37.1269 136.207 42.0264V199.914C136.207 204.813 132.22 208.799 127.321 208.799H60.024C55.1245 208.799 51.1383 204.813 51.1383 199.914V42.0264C51.1383 37.1269 55.1245 33.1407 60.024 33.1407H127.321ZM127.321 28.5137H60.024C52.5613 28.5137 46.5117 34.5633 46.5117 42.0259V199.913C46.5117 207.376 52.5613 213.425 60.024 213.425H127.321C134.783 213.425 140.833 207.376 140.833 199.913V42.0259C140.833 34.5637 134.783 28.5137 127.321 28.5137Z" fill="#060000"/>
<path d="M125.932 124.035H60.5698C58.4819 124.035 56.7891 121.387 56.7891 118.12V54.9712C56.7891 51.705 58.4819 49.0566 60.5698 49.0566H125.932C128.02 49.0566 129.713 51.705 129.713 54.9712V118.12C129.713 121.387 128.02 124.035 125.932 124.035Z" fill="white"/>
<path d="M87.0876 80.8977H66.7298C65.2081 80.8977 63.9736 79.8238 63.9736 78.4982V60.7745C63.9736 59.4497 65.2071 58.375 66.7298 58.375H87.0876C88.6092 58.375 89.8437 59.4489 89.8437 60.7745V78.4982C89.8427 79.823 88.6092 80.8977 87.0876 80.8977Z" fill="#B8D2C3" fill-opacity="0.72"/>
<path d="M87.0876 108.628H66.7298C65.2081 108.628 63.9736 107.554 63.9736 106.229V88.505C63.9736 87.1802 65.2071 86.1055 66.7298 86.1055H87.0876C88.6092 86.1055 89.8437 87.1793 89.8437 88.505V106.229C89.8427 107.553 88.6092 108.628 87.0876 108.628Z" fill="#B8D2C3" fill-opacity="0.72"/>
<path d="M119.124 80.8235H98.7659C97.2442 80.8235 96.0098 79.7496 96.0098 78.424V60.7003C96.0098 59.3755 97.2432 58.3008 98.7659 58.3008H119.124C120.645 58.3008 121.88 59.3747 121.88 60.7003V78.424C121.879 79.7487 120.645 80.8235 119.124 80.8235Z" fill="#3A8459"/>
<path d="M119.124 108.556H98.7659C97.2442 108.556 96.0098 107.482 96.0098 106.156V88.4327C96.0098 87.108 97.2432 86.0332 98.7659 86.0332H119.124C120.645 86.0332 121.88 87.1071 121.88 88.4327V106.156C121.879 107.481 120.645 108.556 119.124 108.556Z" fill="#B8D2C3" fill-opacity="0.72"/>
<path d="M114.729 28.9805H72.6216V33.8785C72.6216 36.0492 74.3812 37.8087 76.5518 37.8087H110.799C112.97 37.8087 114.729 36.0492 114.729 33.8785V28.9805Z" fill="#060000"/>
<rect x="71.1504" y="178.469" width="46.2194" height="18.4878" rx="5" fill="#FF8D46"/>
<path d="M83.167 184.84H84.9443C85.7048 184.84 86.2803 184.947 86.6709 185.16C87.0615 185.374 87.2568 185.749 87.2568 186.285C87.2568 186.501 87.2217 186.697 87.1514 186.871C87.0837 187.046 86.9847 187.189 86.8545 187.301C86.7243 187.413 86.5654 187.486 86.3779 187.52V187.559C86.568 187.598 86.7399 187.665 86.8936 187.762C87.0472 187.855 87.1696 187.993 87.2607 188.176C87.3545 188.355 87.4014 188.595 87.4014 188.895C87.4014 189.241 87.3167 189.538 87.1475 189.785C86.9782 190.033 86.736 190.223 86.4209 190.355C86.1084 190.486 85.736 190.551 85.3037 190.551H83.167V184.84ZM84.3779 187.102H85.0811C85.4326 187.102 85.6761 187.047 85.8115 186.938C85.9469 186.826 86.0146 186.661 86.0146 186.445C86.0146 186.227 85.9339 186.07 85.7725 185.977C85.6136 185.88 85.361 185.832 85.0146 185.832H84.3779V187.102ZM84.3779 188.062V189.551H85.167C85.5316 189.551 85.7855 189.48 85.9287 189.34C86.0719 189.199 86.1436 189.01 86.1436 188.773C86.1436 188.633 86.1123 188.509 86.0498 188.402C85.9873 188.296 85.8818 188.212 85.7334 188.152C85.5876 188.092 85.3857 188.062 85.1279 188.062H84.3779ZM93.7256 187.688C93.7256 188.128 93.6709 188.529 93.5615 188.891C93.4521 189.25 93.2855 189.56 93.0615 189.82C92.8402 190.081 92.5589 190.281 92.2178 190.422C91.8766 190.56 91.473 190.629 91.0068 190.629C90.5407 190.629 90.137 190.56 89.7959 190.422C89.4548 190.281 89.1722 190.081 88.9482 189.82C88.7269 189.56 88.5615 189.249 88.4521 188.887C88.3428 188.525 88.2881 188.122 88.2881 187.68C88.2881 187.089 88.3844 186.574 88.5771 186.137C88.7725 185.697 89.0719 185.355 89.4756 185.113C89.8792 184.871 90.3923 184.75 91.0146 184.75C91.6344 184.75 92.1436 184.871 92.542 185.113C92.943 185.355 93.2399 185.697 93.4326 186.137C93.6279 186.577 93.7256 187.094 93.7256 187.688ZM89.5576 187.688C89.5576 188.086 89.6071 188.43 89.7061 188.719C89.8076 189.005 89.9652 189.227 90.1787 189.383C90.3923 189.536 90.6683 189.613 91.0068 189.613C91.3506 189.613 91.6292 189.536 91.8428 189.383C92.0563 189.227 92.2113 189.005 92.3076 188.719C92.4066 188.43 92.4561 188.086 92.4561 187.688C92.4561 187.089 92.3441 186.617 92.1201 186.273C91.8962 185.93 91.5277 185.758 91.0146 185.758C90.6735 185.758 90.3949 185.836 90.1787 185.992C89.9652 186.146 89.8076 186.367 89.7061 186.656C89.6071 186.943 89.5576 187.286 89.5576 187.688ZM100.093 187.688C100.093 188.128 100.038 188.529 99.9287 188.891C99.8193 189.25 99.6527 189.56 99.4287 189.82C99.2074 190.081 98.9261 190.281 98.585 190.422C98.2438 190.56 97.8402 190.629 97.374 190.629C96.9079 190.629 96.5042 190.56 96.1631 190.422C95.8219 190.281 95.5394 190.081 95.3154 189.82C95.0941 189.56 94.9287 189.249 94.8193 188.887C94.71 188.525 94.6553 188.122 94.6553 187.68C94.6553 187.089 94.7516 186.574 94.9443 186.137C95.1396 185.697 95.4391 185.355 95.8428 185.113C96.2464 184.871 96.7594 184.75 97.3818 184.75C98.0016 184.75 98.5107 184.871 98.9092 185.113C99.3102 185.355 99.6071 185.697 99.7998 186.137C99.9951 186.577 100.093 187.094 100.093 187.688ZM95.9248 187.688C95.9248 188.086 95.9743 188.43 96.0732 188.719C96.1748 189.005 96.3324 189.227 96.5459 189.383C96.7594 189.536 97.0355 189.613 97.374 189.613C97.7178 189.613 97.9964 189.536 98.21 189.383C98.4235 189.227 98.5785 189.005 98.6748 188.719C98.7738 188.43 98.8232 188.086 98.8232 187.688C98.8232 187.089 98.7113 186.617 98.4873 186.273C98.2633 185.93 97.8949 185.758 97.3818 185.758C97.0407 185.758 96.762 185.836 96.5459 185.992C96.3324 186.146 96.1748 186.367 96.0732 186.656C95.9743 186.943 95.9248 187.286 95.9248 187.688ZM105.87 190.551H104.495L102.999 188.145L102.487 188.512V190.551H101.276V184.84H102.487V187.453C102.568 187.341 102.647 187.229 102.726 187.117C102.804 187.005 102.883 186.893 102.964 186.781L104.511 184.84H105.854L103.862 187.367L105.87 190.551Z" fill="white"/>
<path d="M176.384 224.849V219.508L185.955 219.443L186.034 227.512L185.441 227.557C182.801 227.727 172.006 227.975 170.237 227.428C168.264 226.818 176.384 224.849 176.384 224.849Z" fill="#200902"/>
<path d="M169.972 226.928C169.972 227.018 173.552 227.091 177.967 227.091C182.384 227.091 185.963 227.018 185.963 226.928C185.963 226.838 182.384 226.766 177.967 226.766C173.552 226.766 169.972 226.839 169.972 226.928Z" fill="#263238"/>
<path d="M176.229 225.942C176.307 225.901 176.24 225.618 176.035 225.34C175.83 225.061 175.58 224.912 175.517 224.975C175.453 225.04 175.584 225.274 175.773 225.533C175.962 225.789 176.148 225.985 176.229 225.942Z" fill="#263238"/>
<path d="M175.619 226.292C175.702 226.261 175.659 225.944 175.471 225.611C175.284 225.277 175.034 225.078 174.965 225.132C174.893 225.188 175.014 225.46 175.188 225.771C175.362 226.08 175.533 226.325 175.619 226.292Z" fill="#263238"/>
<path d="M183.128 226.904C183.166 226.93 183.308 226.79 183.515 226.555C183.724 226.322 183.997 225.993 184.355 225.714C184.71 225.437 185.102 225.298 185.391 225.262C185.682 225.222 185.873 225.268 185.889 225.221C185.906 225.186 185.728 225.053 185.383 225.032C185.043 225.009 184.563 225.138 184.157 225.456C183.753 225.772 183.494 226.148 183.33 226.42C183.167 226.694 183.093 226.879 183.128 226.904Z" fill="#263238"/>
<path d="M176.179 224.936C176.132 225.012 176.296 225.197 176.57 225.297C176.842 225.398 177.088 225.362 177.101 225.275C177.115 225.185 176.921 225.081 176.682 224.992C176.442 224.904 176.226 224.859 176.179 224.936Z" fill="#263238"/>
<path d="M176.352 224.423C176.344 224.512 176.599 224.589 176.922 224.593C177.245 224.597 177.502 224.528 177.495 224.438C177.489 224.348 177.235 224.272 176.926 224.268C176.618 224.264 176.361 224.333 176.352 224.423Z" fill="#263238"/>
<path d="M152.814 224.849L152.813 219.508L162.384 219.443L162.463 227.43L161.87 227.474C159.23 227.645 148.435 227.975 146.666 227.428C144.693 226.818 152.814 224.849 152.814 224.849Z" fill="#200902"/>
<path d="M146.465 226.942C146.465 227.032 150.045 227.105 154.461 227.105C158.878 227.105 162.457 227.032 162.457 226.942C162.457 226.852 158.878 226.779 154.461 226.779C150.046 226.779 146.465 226.852 146.465 226.942Z" fill="#263238"/>
<path d="M152.643 225.942C152.722 225.901 152.654 225.618 152.448 225.34C152.243 225.061 151.993 224.912 151.931 224.975C151.866 225.04 151.997 225.274 152.187 225.533C152.376 225.789 152.563 225.985 152.643 225.942Z" fill="#263238"/>
<path d="M152.024 226.292C152.107 226.261 152.064 225.944 151.876 225.611C151.688 225.277 151.439 225.078 151.37 225.132C151.298 225.188 151.419 225.46 151.592 225.771C151.767 226.08 151.939 226.325 152.024 226.292Z" fill="#263238"/>
<path d="M159.551 226.902C159.589 226.928 159.731 226.788 159.938 226.553C160.146 226.32 160.42 225.991 160.778 225.712C161.133 225.435 161.524 225.296 161.814 225.26C162.105 225.22 162.296 225.266 162.312 225.219C162.329 225.184 162.151 225.051 161.806 225.03C161.467 225.007 160.986 225.136 160.58 225.454C160.176 225.77 159.918 226.146 159.754 226.418C159.589 226.692 159.515 226.877 159.551 226.902Z" fill="#263238"/>
<path d="M152.602 224.936C152.555 225.012 152.719 225.197 152.992 225.297C153.265 225.398 153.511 225.362 153.524 225.275C153.538 225.185 153.344 225.081 153.105 224.992C152.865 224.904 152.649 224.859 152.602 224.936Z" fill="#263238"/>
<path d="M152.751 224.423C152.742 224.512 152.997 224.589 153.32 224.593C153.644 224.597 153.9 224.528 153.894 224.438C153.888 224.348 153.632 224.272 153.324 224.268C153.016 224.264 152.76 224.333 152.751 224.423Z" fill="#263238"/>
<path d="M117.56 66.3457C117.809 66.0885 118.424 66.2096 118.424 66.2096C118.424 66.2096 118.316 65.4798 118.43 65.1271C118.543 64.7744 119.329 64.8424 119.329 64.8424C119.329 64.8424 119.378 64.5028 119.31 63.9547C119.292 63.8173 119.368 63.7162 119.492 63.6407C119.865 63.4153 120.669 63.4259 120.669 63.4259C121.151 63.0813 119.2 60.3544 118.477 59.4817C117.763 58.6195 117.883 57.9284 118.528 57.9297C118.967 57.9303 121.244 60.5517 121.939 61.4319C122.633 62.3116 124.496 64.7594 124.559 62.806C124.623 60.8526 125.408 59.3749 125.898 59.1233C126.389 58.8717 126.918 59.4623 126.647 60.0048C126.427 60.4431 126.288 61.2877 126.21 61.9264C126.145 62.4533 126.167 62.9877 126.282 63.5052C126.607 64.9685 126.958 65.9187 127.122 66.3251L127.17 66.2982C127.17 66.2982 140.796 79.3639 141.778 80.2966C142.662 81.1357 160.368 79.304 163.915 78.9275C164.885 78.8189 166.321 78.6241 167.565 78.6791C169.104 78.7465 169.377 78.965 170.917 78.9856C175.633 79.0487 179.563 79.5075 182.488 80.0026C186.024 80.6006 188.923 83.1178 190.018 86.5332C193.598 97.7061 201.697 124.158 203.141 139.018C204.278 141.156 205.548 143.652 206.064 145.057C207.067 147.788 206.824 147.881 206.486 147.944C205.578 148.112 204.539 143.207 204.151 144.391C203.763 145.575 206.119 150.242 205.163 150.379C203.917 150.557 202.924 145.402 202.808 144.972C202.695 144.554 202.066 144.695 202.192 145.078C202.373 145.628 204.13 151.453 202.907 151.639C202.23 151.743 202.157 150.509 202.157 150.509C202.157 150.509 200.914 144.938 200.341 145.046C199.758 145.155 200.377 148.45 200.665 149.546C200.949 150.629 200.549 151.205 199.964 150.933C199.566 150.747 198.606 147.409 198.348 146.319C198.089 145.228 197.433 142.223 196.551 143.968C195.67 145.712 194.336 146.721 193.784 146.742C193.234 146.764 193.003 146.005 193.478 145.628C193.862 145.323 194.344 144.616 194.685 144.069C194.966 143.619 195.172 143.125 195.285 142.607C195.724 140.61 195.72 139.448 195.72 139.448L195.822 138.806C194.424 131.881 190.395 111.563 184.606 98.5832L182.223 103.488L181.188 107.119L187.54 122.813L160.438 122.456L164.479 106.887L159.57 90.6523C154.257 90.7709 140.613 90.9688 138.32 89.9437C135.461 88.6664 120.666 70.0165 120.666 70.0165C119.667 69.2205 118.651 68.3646 117.901 67.6174C117.9 67.6161 117.018 66.9026 117.56 66.3457Z" fill="#FFBE9D"/>
<path d="M188.722 111.257C187.937 108.574 183.897 95.3026 183.897 95.3026C183.897 95.3026 181.914 106.122 182.435 107.425C183.036 108.926 184.14 110.644 184.14 110.644C188.722 117.623 188.121 121.111 188.121 121.111L160.44 120.267C160.372 116.396 162.664 107.396 163.143 105.962C163.623 104.528 162.033 99.8212 162.033 99.8212C162.033 99.8212 158.905 96.6442 159.026 95.0092C159.27 91.7154 159.572 90.6517 159.572 90.6517L142.728 91.2716L143.258 79.8428L167.469 77.4199C168.307 79.8041 175.932 78.636 175.932 78.636C184.163 78.9063 184.661 80.4202 188.094 83.0778C191.526 85.7354 197.179 108.561 197.179 108.561L188.722 111.257Z" fill="#467AC9"/>
<path d="M172.361 108.558C172.361 108.602 172.918 108.638 173.82 108.632C174.721 108.627 175.966 108.57 177.334 108.434C178.703 108.295 179.935 108.102 180.819 107.928C181.703 107.754 182.242 107.608 182.234 107.565C182.225 107.52 181.673 107.586 180.782 107.701C179.892 107.817 178.664 107.973 177.302 108.11C175.941 108.246 174.706 108.338 173.811 108.402C172.915 108.467 172.36 108.512 172.361 108.558Z" fill="#263238"/>
<path d="M170.46 106.204C170.449 106.244 171.02 106.461 171.972 106.719C172.923 106.977 174.26 107.263 175.756 107.441C177.252 107.618 178.619 107.655 179.604 107.626C180.591 107.598 181.196 107.52 181.194 107.479C181.192 107.431 180.584 107.427 179.605 107.396C178.626 107.366 177.276 107.294 175.794 107.118C174.314 106.942 172.984 106.695 172.025 106.496C171.066 106.296 170.474 106.158 170.46 106.204Z" fill="#263238"/>
<path d="M161.149 95.7032C161.106 95.7126 161.177 96.252 161.338 97.1154C161.499 97.9788 161.752 99.1649 162.071 100.466C162.391 101.768 162.715 102.937 162.971 103.777C163.228 104.617 163.414 105.128 163.457 105.116C163.501 105.104 163.393 104.571 163.194 103.717C162.958 102.743 162.686 101.624 162.387 100.389C162.081 99.1562 161.804 98.0393 161.562 97.0661C161.345 96.2158 161.193 95.6939 161.149 95.7032Z" fill="#263238"/>
<path d="M188.439 109.668C188.463 109.755 190.372 109.31 192.703 108.673C195.034 108.037 196.905 107.452 196.881 107.364C196.857 107.278 194.949 107.723 192.617 108.359C190.286 108.996 188.415 109.582 188.439 109.668Z" fill="#263238"/>
<path d="M159.265 90.5066C159.265 90.5216 159.521 90.5484 159.981 90.5028C160.439 90.456 161.109 90.3493 161.885 90.049C162.661 89.7581 163.544 89.2717 164.369 88.5363C165.193 87.804 165.931 86.7964 166.401 85.6109C166.878 84.426 167.035 83.1912 166.96 82.0918C166.888 80.9943 166.597 80.0023 166.106 79.3075C165.619 78.6033 164.974 78.2625 164.525 78.1445C164.298 78.0839 164.115 78.0695 163.992 78.0727C163.869 78.0758 163.806 78.0895 163.806 78.0995C163.805 78.1301 164.065 78.1157 164.487 78.2649C164.902 78.4135 165.485 78.7638 165.915 79.4361C166.764 80.7721 167.001 83.2112 166.098 85.4911C165.645 86.631 164.949 87.5986 164.167 88.3153C163.384 89.0351 162.543 89.5264 161.799 89.8361C160.299 90.4579 159.253 90.4373 159.265 90.5066Z" fill="#263238"/>
<path d="M144.743 91.0447C144.832 91.0447 144.9 88.4689 144.894 85.2919C144.887 82.1136 144.809 79.5391 144.72 79.5391C144.63 79.5397 144.563 82.1149 144.569 85.2925C144.575 88.4695 144.653 91.0453 144.743 91.0447Z" fill="#263238"/>
<path d="M165.918 70.0657C165.859 70.4783 165.593 70.7815 165.324 70.7433C165.054 70.7052 164.883 70.3395 164.942 69.9269C165 69.5144 165.267 69.2112 165.536 69.2493C165.806 69.2875 165.977 69.6531 165.918 70.0657Z" fill="#263238"/>
<path d="M165.644 69.2896L164.694 68.8633C164.694 68.8633 165.092 69.7097 165.644 69.2896Z" fill="#263238"/>
<path d="M165.682 70.9961C165.682 70.9961 164.729 72.6726 163.837 73.4203C164.309 74.006 165.268 73.9053 165.268 73.9053L165.682 70.9961Z" fill="#FF5652"/>
<path d="M167.379 68.0158C167.439 68.0302 167.503 68.0227 167.559 67.9896C167.676 67.9214 167.715 67.7714 167.648 67.6551C166.967 66.4856 165.84 66.4149 165.791 66.4124C165.656 66.4056 165.541 66.5093 165.535 66.6443C165.528 66.7787 165.631 66.8938 165.766 66.9013C165.81 66.9038 166.683 66.9707 167.224 67.9014C167.26 67.9608 167.317 68.0002 167.379 68.0158Z" fill="#263238"/>
<path d="M180.026 70.352C178.994 75.3747 178.665 77.5225 175.736 79.7592C171.331 83.1241 165.388 80.7587 164.898 75.5291C164.456 70.822 166.217 63.3995 171.463 62.0881C176.632 60.796 181.057 65.3292 180.026 70.352Z" fill="#FF8B7B"/>
<path d="M168.885 72.1188C170.396 74.0147 163.876 75.5456 166.236 80.8377C168.596 86.1299 162.466 83.9376 165.909 91.2026C169.288 98.3332 181.426 102.071 188.413 99.1433C185.71 98.6476 183.54 95.302 185.818 93.6555C189.087 91.292 189.905 87.8864 188.137 84.7684C186.37 81.6504 182.05 76.7439 184.04 72.9227C186.472 68.2513 186.561 64.9651 181.548 61.307C176.437 57.5782 164.957 54.4583 165.303 61.3932C165.65 68.3275 168.885 72.1188 168.885 72.1188Z" fill="#263238"/>
<path d="M170.401 71.6428C170.046 72.6449 169.262 73.39 168.467 73.7532C167.273 74.2995 166.471 73.2806 166.632 72.046C166.777 70.9346 167.573 69.3112 168.855 69.2837C170.118 69.2555 170.806 70.497 170.401 71.6428Z" fill="#FF8B7B"/>
<path d="M188.098 121.114L160.417 120.27L148.378 167.303L150.595 221.253H165.247L163.431 168.451L174.139 135.71L172.489 223.345L187.281 223.563L188.839 141.19C188.904 138.901 189.658 133.735 189.377 131.464L188.098 121.114Z" fill="#523332"/>
<path d="M170.466 136.375C170.472 136.418 170.991 136.392 171.824 136.294C172.657 136.196 173.802 136.02 175.057 135.769C176.312 135.516 177.436 135.235 178.242 135.003C179.048 134.77 179.537 134.595 179.526 134.552C179.501 134.461 177.491 134.949 174.993 135.45C172.496 135.955 170.454 136.282 170.466 136.375Z" fill="#455A64"/>
<path d="M150.744 218.291C150.744 218.382 154.061 218.454 158.152 218.454C162.244 218.454 165.56 218.382 165.56 218.291C165.56 218.202 162.244 218.129 158.152 218.129C154.061 218.13 150.744 218.202 150.744 218.291Z" fill="#455A64"/>
<path d="M172.633 221.067C172.633 221.157 175.85 221.23 179.819 221.23C183.789 221.23 187.007 221.157 187.007 221.067C187.007 220.977 183.789 220.904 179.819 220.904C175.85 220.904 172.633 220.977 172.633 221.067Z" fill="#455A64"/>
<path d="M174.539 220.842C174.629 220.843 175.018 201.694 175.408 178.076C175.798 154.45 176.041 135.302 175.952 135.301C175.862 135.3 175.473 154.445 175.083 178.071C174.692 201.689 174.449 220.84 174.539 220.842Z" fill="#455A64"/>
<path d="M152.707 218.293C152.713 218.293 152.714 218.206 152.714 218.038C152.711 217.854 152.706 217.607 152.7 217.29C152.681 216.615 152.653 215.65 152.617 214.416C152.53 211.903 152.405 208.296 152.25 203.846C151.908 194.908 151.437 182.588 150.916 168.98C150.911 168.854 150.907 168.729 150.902 168.613L150.897 168.659C154.178 155.522 157.143 143.648 159.293 135.039C160.348 130.751 161.203 127.276 161.798 124.855C162.084 123.665 162.307 122.735 162.463 122.084C162.533 121.779 162.588 121.54 162.628 121.362C162.664 121.198 162.679 121.115 162.674 121.113C162.669 121.112 162.642 121.194 162.596 121.354C162.548 121.53 162.483 121.767 162.4 122.069C162.23 122.716 161.987 123.642 161.676 124.826C161.057 127.24 160.168 130.706 159.072 134.984C156.898 143.587 153.899 155.453 150.582 168.58L150.577 168.603L150.578 168.626C150.582 168.742 150.587 168.867 150.592 168.994C151.149 182.6 151.654 194.918 152.021 203.856C152.219 208.304 152.379 211.908 152.491 214.421C152.553 215.655 152.601 216.618 152.635 217.293C152.655 217.609 152.669 217.856 152.681 218.04C152.693 218.208 152.701 218.293 152.707 218.293Z" fill="#455A64"/>
<path d="M157.475 167.513C157.46 167.602 158.909 167.924 160.712 168.234C162.058 168.465 163.22 168.624 163.728 168.652L163.728 168.526C163.56 168.572 163.469 168.608 163.473 168.631C163.476 168.653 163.574 168.66 163.748 168.652L164.126 168.636L163.749 168.526C163.261 168.383 162.112 168.145 160.766 167.914C158.964 167.604 157.49 167.424 157.475 167.513Z" fill="#455A64"/>
<path d="M157.766 169.309C157.779 169.399 159.079 169.299 160.68 169.176C162.282 169.05 163.582 168.947 163.58 168.855C163.578 168.767 162.267 168.724 160.655 168.851C159.044 168.975 157.754 169.221 157.766 169.309Z" fill="#455A64"/>
<path opacity="0.2" d="M188.235 122.106C187.566 123.048 186.611 123.378 185.502 123.56C184.393 123.742 183.261 123.621 182.145 123.496C175 122.704 167.429 121.973 160.431 120.268C169.489 120.775 179.054 120.604 188.112 121.112C188.112 121.112 188.189 121.735 188.207 121.884" fill="#523332"/>
<g opacity="0.2">
<path d="M178.908 134.873L173.805 154.684L174.162 135.708L178.908 134.873Z" fill="#523332"/>
</g>
</g>
<defs>
<clipPath id="clip0_2328_12967">
<rect width="238" height="234" fill="white" transform="translate(0.5)"/>
</clipPath>
</defs>
</svg>
